<svg width="256" height="256" viewBox="0 0 256 256" fill="none" xmlns="http://www.w3.org/2000/svg">
<path fill-rule="evenodd" clip-rule="evenodd" d="M256 128C256 198.692 198.692 256 128 256C57.3076 256 0 198.692 0 128C0 57.3076 57.3076 0 128 0C198.692 0 256 57.3076 256 128ZM128.052 40.96L73.5244 95.488L95.2665 117.23L149.795 62.702L128.052 40.96ZM160.705 73.5065L73.5641 160.648L95.3062 182.39L182.447 95.2486L160.705 73.5065ZM106.155 193.3L193.297 106.159L215.04 127.9L127.896 215.04L106.155 193.3ZM62.702 106.304L40.96 128.046L62.702 149.788L84.4441 128.046L62.702 106.304Z" fill="white"/>
</svg>
