<svg width="256" height="256" viewBox="0 0 256 256" fill="none" xmlns="http://www.w3.org/2000/svg">
<path fill-rule="evenodd" clip-rule="evenodd" d="M128 0C57.307 0 0 57.307 0 128C0 198.693 57.307 256 128 256C198.693 256 256 198.693 256 128C256 57.307 198.693 0 128 0ZM119.426 128L180.675 163.084C181.168 163.38 181.73 163.54 182.305 163.546C182.879 163.553 183.445 163.406 183.944 163.121C184.443 162.836 184.857 162.424 185.143 161.926C185.43 161.428 185.579 160.862 185.574 160.288V95.6659C185.581 95.091 185.433 94.5249 185.146 94.0267C184.859 93.5285 184.444 93.1163 183.943 92.8333C183.443 92.5503 182.876 92.4067 182.301 92.4176C181.726 92.4284 181.165 92.5934 180.675 92.8951L119.426 128ZM137.505 46.5684L179.375 77.3655C179.808 77.671 180.156 78.0832 180.384 78.5623C180.612 79.0414 180.712 79.5711 180.675 80.1003C180.639 80.6295 180.466 81.1403 180.174 81.5834C179.882 82.0264 179.481 82.3867 179.01 82.6295L116.973 116.932L132.261 48.3213C132.379 47.9088 132.572 47.5217 132.832 47.1801C133.099 46.833 133.431 46.5418 133.81 46.3232C134.189 46.1046 134.608 45.9628 135.042 45.906C135.476 45.8492 135.917 45.8784 136.339 45.9921C136.762 46.1058 137.158 46.3016 137.505 46.5684ZM137.459 209.416L179.375 178.619C180.055 178.141 180.517 177.412 180.661 176.593C180.805 175.774 180.617 174.931 180.141 174.25C179.853 173.844 179.475 173.511 179.035 173.278L116.973 138.98L132.261 207.576C132.362 207.999 132.544 208.398 132.799 208.75C133.053 209.102 133.375 209.4 133.745 209.628C134.115 209.856 134.526 210.008 134.955 210.077C135.384 210.146 135.823 210.129 136.245 210.028C136.685 209.926 137.098 209.733 137.459 209.463V209.416ZM119.436 52.2538L103.5 126.73L119.246 201.258C119.366 201.875 119.3 202.514 119.056 203.093C118.812 203.672 118.4 204.165 117.875 204.509C117.349 204.853 116.733 205.033 116.104 205.025C115.476 205.018 114.864 204.823 114.347 204.466L73.7363 173.278C72.6893 172.477 71.8445 171.442 71.2696 170.255C70.6948 169.069 70.4057 167.764 70.4258 166.446V87.0657C70.4221 85.7624 70.72 84.4759 71.2961 83.3068C71.8722 82.1377 72.7109 81.1176 73.7466 80.3264L114.537 49.041C115.054 48.6834 115.667 48.4882 116.296 48.4806C116.925 48.473 117.542 48.6532 118.068 48.9982C118.594 49.3432 119.005 49.8373 119.249 50.4172C119.493 50.9972 119.558 51.6367 119.436 52.2538Z" fill="white"/>
</svg>
