<svg width="257" height="256" viewBox="0 0 257 256" fill="none" xmlns="http://www.w3.org/2000/svg">
<path fill-rule="evenodd" clip-rule="evenodd" d="M256 128C256 198.694 198.694 256 128 256C57.3056 256 0 198.694 0 128C0 57.3056 57.3056 0 128 0C198.694 0 256 57.3056 256 128ZM162.859 94.8685C166.603 92.8742 170.813 92.8742 174.089 94.8685L211.988 118.3C215.731 120.792 217.602 124.781 217.602 128.769V176.129C217.602 180.616 215.263 184.604 211.988 186.598L174.089 210.029C170.346 212.023 166.135 212.023 162.859 210.029L124.961 186.598C121.218 184.106 119.347 180.118 119.347 176.129V159.677L137.126 148.71V164.663C137.126 169.149 139.466 173.138 142.74 175.132L162.859 187.596C166.603 189.59 170.813 189.59 174.089 187.596L193.741 175.132C197.483 172.64 199.355 168.652 199.355 164.663V139.736C199.355 135.25 197.015 131.261 193.741 129.267L173.622 116.804C169.878 114.81 165.668 114.81 162.392 116.804L136.658 132.756L118.879 143.725L93.1455 159.677C89.4019 161.672 85.1909 161.672 81.9158 159.677L44.0171 136.247C40.274 133.754 38.4025 129.766 38.4025 125.778V78.9157C38.4025 74.9275 40.274 70.9393 44.0171 68.9452L82.3836 45.0155C86.1267 43.0214 90.3377 43.0214 93.6127 45.0155L131.044 68.4466C134.786 70.9393 136.658 74.9275 136.658 78.9157V95.8656L118.879 106.834V90.382C118.879 85.8952 116.539 81.9069 113.265 79.9128L93.1455 66.9509C89.4019 64.9568 85.1909 64.9568 81.9158 66.9509L61.7968 79.4143C58.0537 81.9069 56.182 85.8952 56.182 89.8834V114.81C56.182 119.297 58.5215 123.284 61.7968 125.279L81.9158 138.241C85.6589 140.236 89.8699 140.236 93.1455 138.241L118.879 121.789L136.658 111.32L162.859 94.8685Z" fill="white"/>
</svg>
