<svg width="256" height="256" viewBox="0 0 256 256" fill="none" xmlns="http://www.w3.org/2000/svg">
<g clip-path="url(#clip0_9_10)">
<path d="M42.6667 106.667H64V85.3333H42.6667V106.667Z" fill="white"/>
<path d="M42.6667 149.333H64V128H42.6667V149.333Z" fill="white"/>
<path d="M42.6667 128H64V106.667H42.6667V128Z" fill="white"/>
<path d="M42.6667 170.667H64V149.333H42.6667V170.667Z" fill="white"/>
<path d="M128 64H149.333V42.6667H128V64Z" fill="white"/>
<path d="M128 192L149.333 192L149.333 213.333L128 213.333L128 192Z" fill="white"/>
<path d="M149.333 64H170.667V42.6667H149.333V64Z" fill="white"/>
<path d="M170.667 64H192V42.6667H170.667V64Z" fill="#F7F7F7"/>
<path d="M85.3333 64L64 64L64 42.6667L85.3333 42.6667L85.3333 64Z" fill="#F7F7F7"/>
<path d="M213.333 192L192 192L192 170.667L213.333 170.667L213.333 192Z" fill="#F7F7F7"/>
<path d="M42.6667 192H64V170.667H42.6667V192Z" fill="#F7F7F7"/>
<path d="M149.333 42.6667H170.667V21.3334L149.333 21.3334V42.6667Z" fill="#F7F7F7"/>
<path d="M149.333 21.3333L170.667 21.3333V7.62939e-06L149.333 7.62939e-06V21.3333Z" fill="white"/>
<path d="M149.333 256H170.667V234.667H149.333V256Z" fill="white"/>
<path d="M149.333 234.667H170.667V213.333H149.333V234.667Z" fill="#F7F7F7"/>
<path d="M106.667 42.6667H128V21.3334L106.667 21.3334V42.6667Z" fill="#F7F7F7"/>
<path d="M106.667 21.3333L128 21.3333V7.62939e-06L106.667 7.62939e-06V21.3333Z" fill="white"/>
<path d="M106.667 256H128V234.667H106.667V256Z" fill="white"/>
<path d="M106.667 234.667H128V213.333H106.667V234.667Z" fill="#F7F7F7"/>
<path d="M128 42.6667H149.333V21.3334L128 21.3334V42.6667Z" fill="#F7F7F7"/>
<path d="M128 21.3333L149.333 21.3333V7.62939e-06L128 7.62939e-06V21.3333Z" fill="white"/>
<path d="M128 256H149.333V234.667H128V256Z" fill="white"/>
<path d="M128 234.667H149.333V213.333H128V234.667Z" fill="#F7F7F7"/>
<path d="M85.3333 42.6667H106.667V21.3334L85.3333 21.3334V42.6667Z" fill="#F7F7F7"/>
<path d="M85.3333 21.3333L106.667 21.3333V7.62939e-06L85.3333 7.62939e-06V21.3333Z" fill="white"/>
<path d="M85.3333 256H106.667V234.667H85.3333V256Z" fill="white"/>
<path d="M85.3333 234.667H106.667V213.333H85.3333V234.667Z" fill="#F7F7F7"/>
<path d="M192 85.3334H213.333V64H192V85.3334Z" fill="#F7F7F7"/>
<path d="M64 85.3334L42.6666 85.3334L42.6666 64L64 64L64 85.3334Z" fill="#F7F7F7"/>
<path d="M192 213.333L170.667 213.333L170.667 192L192 192L192 213.333Z" fill="#F7F7F7"/>
<path d="M64 213.333H85.3334V192H64V213.333Z" fill="#F7F7F7"/>
<path d="M213.333 106.667H234.667V85.3333H213.333V106.667Z" fill="#F7F7F7"/>
<path d="M21.3333 106.667H42.6666V85.3333H21.3333L21.3333 106.667Z" fill="#F7F7F7"/>
<path d="M4.00543e-05 106.667H21.3334L21.3334 85.3333H4.00543e-05L4.00543e-05 106.667Z" fill="white"/>
<path d="M21.3333 85.3334H42.6666V64H21.3333L21.3333 85.3334Z" fill="white"/>
<path d="M234.667 85.3334L213.333 85.3334L213.333 64L234.667 64L234.667 85.3334Z" fill="white"/>
<path d="M170.667 234.667H192V213.333H170.667V234.667Z" fill="white"/>
<path d="M21.3334 170.667V192H42.6667V170.667H21.3334Z" fill="white"/>
<path d="M42.6667 64H64V42.6667H42.6667V64Z" fill="white"/>
<path d="M213.333 64L192 64L192 42.6667L213.333 42.6667L213.333 64Z" fill="white"/>
<path d="M192 213.333H213.333V192H192V213.333Z" fill="white"/>
<path d="M42.6666 192V213.333H64V192H42.6666Z" fill="white"/>
<path d="M64 42.6667H85.3334V21.3334L64 21.3334V42.6667Z" fill="white"/>
<path d="M192 42.6667L170.667 42.6667L170.667 21.3334L192 21.3333L192 42.6667Z" fill="white"/>
<path d="M213.333 192H234.667V170.667H213.333V192Z" fill="white"/>
<path d="M64 213.333V234.667H85.3333V213.333H64Z" fill="white"/>
<path d="M234.667 106.667H256V85.3333H234.667V106.667Z" fill="white"/>
<path d="M213.333 128H234.667V106.667H213.333V128Z" fill="#F7F7F7"/>
<path d="M21.3333 128H42.6666V106.667H21.3333L21.3333 128Z" fill="#F7F7F7"/>
<path d="M4.00543e-05 128H21.3334L21.3334 106.667H4.00543e-05L4.00543e-05 128Z" fill="white"/>
<path d="M234.667 128H256V106.667H234.667V128Z" fill="white"/>
<path d="M213.333 149.333H234.667V128H213.333V149.333Z" fill="#F7F7F7"/>
<path d="M21.3333 149.333H42.6666V128H21.3333L21.3333 149.333Z" fill="#F7F7F7"/>
<path d="M4.00543e-05 149.333H21.3334L21.3334 128H4.00543e-05L4.00543e-05 149.333Z" fill="white"/>
<path d="M234.667 149.333H256V128H234.667V149.333Z" fill="white"/>
<path d="M213.333 170.667H234.667V149.333H213.333V170.667Z" fill="#F7F7F7"/>
<path d="M21.3333 170.667H42.6666V149.333H21.3333L21.3333 170.667Z" fill="#F7F7F7"/>
<path d="M4.00543e-05 170.667H21.3334L21.3334 149.333H4.00543e-05L4.00543e-05 170.667Z" fill="white"/>
<path d="M234.667 170.667H256V149.333H234.667V170.667Z" fill="white"/>
<path d="M149.333 192L170.667 192L170.667 213.333L149.333 213.333L149.333 192Z" fill="white"/>
<path d="M128 106.667H149.333V85.3333H128V106.667Z" fill="white"/>
<path d="M128 149.333H149.333V128H128V149.333Z" fill="white"/>
<path d="M128 170.667H149.333V149.333H128V170.667Z" fill="white"/>
<path d="M128 85.3334H149.333V64H128V85.3334Z" fill="white"/>
<path d="M128 170.667L149.333 170.667L149.333 192L128 192L128 170.667Z" fill="white"/>
<path d="M85.3333 149.333H106.667V128H85.3333V149.333Z" fill="white"/>
<path d="M85.3333 128H106.667V106.667H85.3333V128Z" fill="white"/>
<path d="M85.3333 170.667H106.667V149.333H85.3333V170.667Z" fill="white"/>
<path d="M85.3333 85.3334H106.667V64H85.3333V85.3334Z" fill="white"/>
<path d="M85.3333 170.667L106.667 170.667L106.667 192L85.3333 192L85.3333 170.667Z" fill="white"/>
<path d="M149.333 149.333H170.667V128H149.333V149.333Z" fill="white"/>
<path d="M149.333 128H170.667V106.667H149.333V128Z" fill="white"/>
<path d="M149.333 170.667H170.667V149.333H149.333V170.667Z" fill="white"/>
<path d="M149.333 85.3334H170.667V64H149.333V85.3334Z" fill="white"/>
<path d="M149.333 170.667L170.667 170.667L170.667 192L149.333 192L149.333 170.667Z" fill="white"/>
<path d="M106.667 64H128V42.6667H106.667V64Z" fill="white"/>
<path d="M106.667 192L128 192L128 213.333L106.667 213.333L106.667 192Z" fill="white"/>
<path d="M85.3333 64H106.667V42.6667H85.3333V64Z" fill="white"/>
<path d="M85.3333 192L106.667 192L106.667 213.333L85.3333 213.333L85.3333 192Z" fill="white"/>
<path d="M106.667 106.667H128V85.3333H106.667V106.667Z" fill="white"/>
<path d="M106.667 149.333H128V128H106.667V149.333Z" fill="white"/>
<path d="M106.667 170.667H128V149.333H106.667V170.667Z" fill="white"/>
<path d="M106.667 85.3334H128V64H106.667V85.3334Z" fill="white"/>
<path d="M106.667 170.667L128 170.667L128 192L106.667 192L106.667 170.667Z" fill="white"/>
<path d="M192 106.667H213.333V85.3333H192V106.667Z" fill="white"/>
<path d="M192 149.333H213.333V128H192V149.333Z" fill="white"/>
<path d="M192 128H213.333V106.667H192V128Z" fill="white"/>
<path d="M192 170.667H213.333V149.333H192V170.667Z" fill="white"/>
</g>
<defs>
<clipPath id="clip0_9_10">
<rect width="256" height="256" fill="white"/>
</clipPath>
</defs>
</svg>
