<svg width="256" height="256" viewBox="0 0 256 256" fill="none" xmlns="http://www.w3.org/2000/svg">
<path fill-rule="evenodd" clip-rule="evenodd" d="M8.16593e-05 128.146C0.018923 111.445 3.29912 94.8238 9.74673 79.241C19.4477 55.7954 35.8833 35.7529 56.975 21.6481C78.0405 7.56096 102.806 0.0285806 128.146 8.11706e-05C128.097 2.70616e-05 128.049 0 128 0C57.3076 0 0 57.3075 0 128C0 128.049 2.72246e-05 128.097 8.16593e-05 128.146ZM150.125 110.527C150.125 123.507 131.613 123.179 123.072 123.027H123.072H123.071H123.071H123.071H123.07C122.271 123.013 121.559 123 120.958 123V97.992C121.665 97.992 122.524 97.9695 123.497 97.9441C132.216 97.7161 150.125 97.2479 150.125 110.527ZM155.906 149.38C155.875 163.591 133.544 163.264 123.35 163.116C122.439 163.102 121.626 163.09 120.934 163.09V135.622C121.785 135.622 122.82 135.597 123.992 135.568C134.451 135.316 155.876 134.799 155.906 149.38ZM155.906 149.38L155.906 149.35V149.411L155.906 149.38ZM173.374 104.991C171.959 90.1068 159.215 85.1863 143.088 83.6364V63.2286H130.701V83.2304C127.417 83.2304 124.071 83.2304 120.737 83.3535V63.2286H108.288V83.7594H83.0335V97.1186C83.0335 97.1186 92.2349 96.9587 92.0996 97.1186C93.7602 96.9357 95.4268 97.406 96.7468 98.4299C98.0669 99.4538 98.9369 100.951 99.1728 102.605V158.834C99.1384 159.413 98.99 159.979 98.7362 160.5C98.4824 161.021 98.1282 161.487 97.6939 161.871C97.2596 162.255 96.7537 162.55 96.2054 162.738C95.657 162.926 95.0769 163.004 94.4983 162.967C94.6582 163.115 85.4323 162.967 85.4323 162.967L82.972 177.889H108.128V198.801H120.589V178.196H130.541V198.666H143.002V178.036C164.05 176.806 178.676 171.554 180.57 151.81C182.059 135.904 174.604 128.819 162.684 125.977C169.93 122.287 174.481 115.78 173.399 104.954L173.374 104.991ZM105.224 29.9619C88.6344 33.8188 73.3008 41.8385 60.67 53.2645L55.4789 47.6059C61.7192 41.1382 68.9278 35.6809 76.8462 31.4298C84.0776 27.5907 91.7202 24.5824 99.6281 22.4621L100.981 22.1054L102.605 21.7118C110.541 19.8621 118.654 18.8723 126.802 18.7594H127.085H131.107C156.229 19.4548 180.335 28.826 199.33 45.281C199.554 45.4907 199.78 45.6983 200.006 45.9059L200.006 45.9062C200.535 46.3926 201.064 46.8796 201.581 47.3968L196.095 53.326C187.417 45.8997 177.667 39.8281 167.174 35.317L167.015 35.2432C165.698 34.6896 164.357 34.1606 163.017 33.6686L162.033 33.3119C161.048 32.9551 160.04 32.6107 159.031 32.2908C158.33 32.0571 157.629 31.8357 156.915 31.6266L155.488 31.2206C139.112 26.5383 121.814 26.1051 105.224 29.9619ZM53.7198 60.1656L47.6922 54.8883C6.80279 97.7459 12.7566 167.482 47.6922 200.72L53.8429 195.91C36.838 177.403 27.3923 153.192 27.3718 128.059C27.3513 102.927 36.7575 78.6999 53.7322 60.1656H53.7198ZM208.556 54.6792C209.552 55.6018 210.512 56.5736 211.459 57.5577H211.508C228.491 77.6822 237.63 103.266 237.241 129.596C236.852 155.926 226.962 181.229 209.392 200.843L204.25 194.631C240.822 151.589 234.278 95.6793 203.279 60.4608L208.556 54.6792ZM196.488 202.86C192.921 205.53 189.378 207.978 185.823 210.241C172.922 219.359 158.046 225.294 142.412 227.561C134.413 228.837 126.278 229.027 118.228 228.127C97.9515 226.161 78.7569 218.059 63.204 204.902C62.6119 204.472 62.0264 204.048 61.4235 203.611L60.7437 203.119L55.0728 208.199C74.9148 227.795 102.113 237.218 128.88 237.205H130.652H130.935C155.834 236.556 179.756 227.381 198.703 211.213C198.875 211.051 199.047 210.889 199.22 210.727C199.911 210.079 200.602 209.432 201.261 208.753L196.488 202.86ZM194.75 28.76C175.061 15.6132 151.915 8.60117 128.241 8.6109C96.528 8.6597 66.128 21.2792 43.7036 43.7036C21.2792 66.128 8.65974 96.528 8.61094 128.241C8.60121 151.915 15.6132 175.061 28.76 194.749C41.9068 214.438 60.5976 229.785 82.4681 238.85C104.339 247.914 128.406 250.288 151.626 245.672C174.846 241.056 196.176 229.656 212.916 212.916C229.656 196.176 241.056 174.846 245.672 151.626C250.288 128.406 247.914 104.339 238.85 82.4681C229.785 60.5975 214.438 41.9067 194.75 28.76Z" fill="white"/>
</svg>
