<svg width="256" height="256" viewBox="0 0 256 256" fill="none" xmlns="http://www.w3.org/2000/svg">
<path d="M46.7596 188.415L77.6538 219.31C70.5596 212.215 53.1673 181.779 53.1673 181.779L52.7096 181.321C30.7404 163.929 18.1538 137.612 18.1538 109.692C18.1538 59.1173 59.1173 18.1538 109.692 18.1538C137.612 18.1538 163.929 30.7404 181.321 52.7096L219.081 77.6538L188.415 46.7596C169.192 22.7308 140.358 9 109.692 9C54.0827 9 9 54.0827 9 109.692C9 140.358 22.7308 169.192 46.7596 188.415Z" fill="white"/>
<path d="M18.2439 122.762L11.7712 129.235L48.8315 166.295L55.3041 159.822L18.2439 122.762Z" fill="white"/>
<path d="M18.2444 88.4355L11.7717 94.9082L48.9997 132.136L55.4724 125.663L18.2444 88.4355Z" fill="white"/>
<path d="M129.373 169.192H108.548V128.229H128.687V135.781H116.329V144.935H127.771V152.487H116.329V161.869H129.373V169.192Z" fill="white"/>
<path d="M159.581 135.781H149.74V169.192H141.731V135.781H131.89V128.229H159.581V135.781Z" fill="white"/>
<path d="M194.365 169.192H186.584V152.487H172.167V169.192H164.386V128.229H172.167V144.477H186.584V128.229H194.365V169.192Z" fill="white"/>
<path d="M146.308 247C90.6982 247 45.6155 201.917 45.6155 146.308C45.6155 90.6981 90.6982 45.6154 146.308 45.6154C201.917 45.6154 247 90.6981 247 146.308C247 201.917 201.917 247 146.308 247ZM146.308 54.7692C95.7328 54.7692 54.7693 95.7327 54.7693 146.308C54.7693 196.883 95.7328 237.846 146.308 237.846C196.883 237.846 237.846 196.883 237.846 146.308C237.846 95.7327 196.883 54.7692 146.308 54.7692Z" fill="white"/>
<path d="M146.308 224.115C103.513 224.115 68.5 189.102 68.5 146.308C68.5 103.513 103.513 68.5 146.308 68.5C189.102 68.5 224.115 103.513 224.115 146.308C224.115 189.102 189.102 224.115 146.308 224.115ZM146.308 77.6538C108.548 77.6538 77.6538 108.548 77.6538 146.308C77.6538 184.067 108.548 214.962 146.308 214.962C184.067 214.962 214.962 184.067 214.962 146.308C214.962 108.548 184.067 77.6538 146.308 77.6538Z" fill="white"/>
</svg>
