<svg width="256" height="256" viewBox="0 0 256 256" fill="none" xmlns="http://www.w3.org/2000/svg">
<path d="M46.7596 188.415L77.6538 219.31C70.5596 212.215 53.1673 181.779 53.1673 181.779L52.7096 181.321C30.7404 163.929 18.1538 137.612 18.1538 109.692C18.1538 59.1173 59.1173 18.1538 109.692 18.1538C137.612 18.1538 163.929 30.7404 181.321 52.7096L219.081 77.6538L188.415 46.7596C169.192 22.7308 140.358 9 109.692 9C54.0827 9 9 54.0827 9 109.692C9 140.358 22.7308 169.192 46.7596 188.415Z" fill="white"/>
<path d="M18.2439 122.762L11.7712 129.235L48.8315 166.295L55.3041 159.822L18.2439 122.762Z" fill="white"/>
<path d="M18.2444 88.4355L11.7717 94.9082L48.9997 132.136L55.4724 125.663L18.2444 88.4355Z" fill="white"/>
<path fill-rule="evenodd" clip-rule="evenodd" d="M145 247C200.781 247 246 201.781 246 146C246 90.2192 200.781 45 145 45C89.2192 45 44 90.2192 44 146C44 201.781 89.2192 247 145 247ZM146 224C189.078 224 224 189.078 224 146C224 102.922 189.078 68 146 68C102.922 68 68 102.922 68 146C68 189.078 102.922 224 146 224Z" fill="white"/>
<path fill-rule="evenodd" clip-rule="evenodd" d="M146 215C184.108 215 215 184.108 215 146C215 107.892 184.108 77 146 77C107.892 77 77 107.892 77 146C77 184.108 107.892 215 146 215ZM108.548 169.192H129.373V161.869H116.329V152.487H127.771V144.935H116.329V135.781H128.687V128.229H108.548V169.192ZM159.581 135.781H149.74V169.192H141.731V135.781H131.89V128.229H159.581V135.781ZM186.584 169.192H194.365V128.229H186.584V144.477H172.167V128.229H164.386V169.192H172.167V152.487H186.584V169.192Z" fill="white"/>
</svg>
