<svg width="16" height="18" viewBox="0 0 16 18" fill="none" xmlns="http://www.w3.org/2000/svg">
<path fill-rule="evenodd" clip-rule="evenodd" d="M7.64729 0L2.96693 2.75952L4.68938 3.77856L7.64729 2.02906L10.6142 3.77856L12.3367 2.75952L7.64729 0ZM1.72244 7.5481V5.51904L3.45391 4.5L1.72244 3.48096L0 4.5V6.52906L1.72244 7.5481ZM1.73146 12.481L1.72244 9L0 7.98096V13.509L4.68938 16.2595V14.2214L1.73146 12.481ZM5.92485 4.5L7.64729 3.48096L9.37876 4.5L7.64729 5.51904L5.92485 4.5ZM4.68938 10.7405L2.96693 9.72144V11.7595L4.68938 12.7695V10.7405ZM5.92485 14.9519L7.64729 15.9709L9.37876 14.9519V16.981L7.64729 18L5.92485 16.981V14.9519ZM13.5721 3.48096L11.8497 4.5L13.5721 5.51904V7.5481L15.3036 6.52906V4.5L13.5721 3.48096ZM13.5721 12.481L13.5812 9L15.3036 7.98096V13.509L10.6142 16.2595V14.2214L13.5721 12.481ZM10.6142 12.7695L12.3367 11.7595V9.72144L10.6142 10.7405V12.7695ZM12.3367 6.24048L12.3457 8.27856L9.37876 10.019V13.509L7.65631 14.519L5.93387 13.509V10.019L2.96693 8.27856V6.24048L4.6984 5.22144L7.64729 6.97094L10.6142 5.22144L12.3457 6.24048H12.3367Z" fill="#F9B72D"/>
</svg>
