<svg width="18" height="18" viewBox="0 0 18 18" fill="none" xmlns="http://www.w3.org/2000/svg">
<path fill-rule="evenodd" clip-rule="evenodd" d="M9 0C13.9758 0 18 4.02417 18 9C18 13.9758 13.9758 18 9 18C4.02417 18 0 13.9758 0 9C0 4.02417 4.02417 0 9 0ZM3.6435 9.35347C3.96979 9.02719 4.26888 8.7281 4.59517 8.40181C5.49245 9.29909 6.41692 10.2236 7.3142 11.1208C9.35347 9.08157 11.3927 7.0423 13.432 5.00302C13.7583 5.32931 14.0574 5.6284 14.3837 5.95468C12.0181 8.32024 9.67976 10.6586 7.3142 13.0242C6.09063 11.8006 4.86707 10.577 3.6435 9.35347Z" fill="#006FE8"/>
</svg>
