<svg width="14" height="14" viewBox="0 0 14 14" fill="none" xmlns="http://www.w3.org/2000/svg">
<path fill-rule="evenodd" clip-rule="evenodd" d="M3.66564 7.99465H1.04985C1.47177 10.5262 3.47413 12.5284 6.00551 12.9502V10.3342C4.88495 9.99937 4.00063 9.11521 3.66564 7.99465ZM9.48642 7.00008C9.48642 5.6291 8.37105 4.51374 7.00008 4.51374C5.6291 4.51374 4.51374 5.6291 4.51374 7.00008C4.51374 8.37105 5.6291 9.48642 7.00008 9.48642C8.37105 9.48642 9.48642 8.37105 9.48642 7.00008ZM10.3342 7.9948C9.99937 9.11536 9.11505 9.99953 7.99449 10.3344H7.99417V12.9502C10.5257 12.5284 12.5279 10.5262 12.9498 7.9948H10.3342ZM6.00551 3.66564V1.05C3.47413 1.47177 1.47177 3.47413 1.04985 6.00551H3.66564C4.00047 4.88495 4.88495 4.00047 6.00551 3.66564ZM10.3344 6.00567H12.9502C12.5282 3.47413 10.526 1.47177 7.99465 1.05V3.6658C9.11521 4.00095 9.99953 4.88511 10.3344 6.00567ZM14 7.00008C14 10.8661 10.8661 14 7.00008 14C3.1341 14 0 10.8661 0 7.00008C0 3.1341 3.1341 0 7.00008 0C10.8661 0 14 3.1341 14 7.00008Z" fill="#667688"/>
</svg>
