<svg width="18" height="18" viewBox="0 0 18 18" fill="none" xmlns="http://www.w3.org/2000/svg">
<path d="M8.99178 5.24609C6.9715 5.24609 5.3335 6.88409 5.3335 8.90495C5.3335 10.9258 6.97121 12.5641 8.99178 12.5641C11.0129 12.5641 12.6512 10.9261 12.6512 8.90495C12.6509 6.88438 11.0129 5.24609 8.99178 5.24609Z" fill="#002B5C"/>
<path fill-rule="evenodd" clip-rule="evenodd" d="M2.7029 2.61648C6.17118 -0.851232 11.8132 -0.851232 15.2806 2.61591C18.7486 6.0842 18.7486 11.7262 15.2806 15.1945C11.8135 18.6616 6.17118 18.6619 2.7029 15.1936C-0.764533 11.7262 -0.763961 6.08391 2.7029 2.61648ZM6.33318 15.5982C8.92404 16.6233 11.9932 16.0908 14.0855 13.9985C16.1778 11.9062 16.71 8.83705 15.6852 6.24591C14.6209 6.3622 13.5149 6.01448 12.6986 5.1982C11.8826 4.38248 11.5352 3.27677 11.6515 2.21191C9.06032 1.18677 5.99147 1.71962 3.8989 3.81191C1.80632 5.9042 1.27375 8.97363 2.2989 11.5642C3.36347 11.4476 4.46918 11.7953 5.28547 12.6116C6.10204 13.4276 6.44947 14.5333 6.33318 15.5982Z" fill="#002B5C"/>
</svg>
