<svg width="20" height="24" viewBox="0 0 20 24" fill="none" xmlns="http://www.w3.org/2000/svg">
<path fill-rule="evenodd" clip-rule="evenodd" d="M15.9321 15.4607C16.1756 14.4839 16.1757 13.4587 15.9321 12.482L17.4214 13.9713L15.9321 15.4607ZM8.51086 19.9036C9.4875 20.147 10.5125 20.147 11.4892 19.9035L10 21.3928L8.51086 19.9036ZM4.0677 12.4821C3.82433 13.4588 3.82433 14.4838 4.06769 15.4604L2.57855 13.9713L4.0677 12.4821ZM13.5787 11.2985C14.8861 13.0468 14.7465 15.5422 13.1586 17.13C11.4169 18.8717 8.58293 18.8718 6.84124 17.1301C5.25334 15.5422 5.1139 13.0468 6.42133 11.2985C8.52815 12.9114 11.4719 12.9114 13.5787 11.2985ZM4.80683 9.40776L0.243281 13.9713L10 23.728L19.7567 13.9713L15.1933 9.40789C16.3968 7.17404 16.0563 4.32852 14.1701 2.44229C11.867 0.139224 8.13311 0.13907 5.82986 2.44232C3.94371 4.32847 3.60342 7.17416 4.80683 9.40776Z" fill="white"/>
</svg>
