<svg width="12" height="14" viewBox="0 0 12 14" fill="none" xmlns="http://www.w3.org/2000/svg">
<path fill-rule="evenodd" clip-rule="evenodd" d="M11.9999 11.6682C11.9999 12.956 10.9948 14 9.75496 14C8.51513 14 7.51005 12.956 7.51005 11.6682C7.50943 11.5116 7.52448 11.3553 7.55495 11.2019L3.68623 8.79235C2.775 9.58499 1.42689 9.50253 0.611523 8.60427C-0.203841 7.706 -0.203841 6.30329 0.611523 5.40503C1.42689 4.50676 2.775 4.4243 3.68623 5.21695L7.55495 2.80743C7.52448 2.65402 7.50943 2.49773 7.51005 2.34108C7.50597 1.24958 8.23139 0.301189 9.25594 0.0585683C10.2805 -0.184052 11.33 0.344026 11.7818 1.32951C12.2336 2.31499 11.9668 3.49413 11.1396 4.16739C10.3125 4.84065 9.14642 4.82783 8.33319 4.13655L4.46447 6.53829C4.53421 6.84497 4.53421 7.16432 4.46447 7.471L8.33319 9.87274C9.00327 9.30311 9.92902 9.18456 10.7122 9.56809C11.4955 9.95161 11.9965 10.7688 11.9999 11.6682Z" fill="white"/>
</svg>
