<svg width="22" height="22" viewBox="0 0 22 22" fill="none" xmlns="http://www.w3.org/2000/svg">
<path fill-rule="evenodd" clip-rule="evenodd" d="M11 0C17.0816 0 22 4.91843 22 11C22 17.0816 17.0816 22 11 22C4.91843 22 0 17.0816 0 11C0 4.91843 4.91843 0 11 0ZM4.45317 11.432C4.85196 11.0332 5.21752 10.6677 5.61631 10.2689C6.71299 11.3656 7.8429 12.4955 8.93958 13.5921C11.432 11.0997 13.9245 8.60725 16.4169 6.1148C16.8157 6.5136 17.1813 6.87915 17.5801 7.27795C14.6888 10.1692 11.8308 13.0272 8.93958 15.9184C7.44411 14.423 5.94864 12.9275 4.45317 11.432Z" fill="#3CBC98"/>
</svg>
