<svg width="13" height="17" viewBox="0 0 13 17" fill="none" xmlns="http://www.w3.org/2000/svg">
<path fill-rule="evenodd" clip-rule="evenodd" d="M6.5 5C10.0899 5 13 3.88071 13 2.5C13 1.11929 10.0899 0 6.5 0C2.91015 0 0 1.11929 0 2.5C0 3.88071 2.91015 5 6.5 5Z" fill="white"/>
<path fill-rule="evenodd" clip-rule="evenodd" d="M12.2759 5C10.7536 5.84138 8.5839 6.24138 6.5 6.24138C4.4161 6.24138 2.2464 5.84138 0.7241 5C0.2769 5.37517 0 5.7931 0 6.24138C0 7.76552 2.9107 9 6.5 9C10.0893 9 13 7.76552 13 6.24138C13 5.7931 12.7231 5.37517 12.2759 5Z" fill="white"/>
<path fill-rule="evenodd" clip-rule="evenodd" d="M12.2759 9C10.7536 9.84138 8.5839 10.2414 6.5 10.2414C4.4161 10.2414 2.2464 9.84138 0.7241 9C0.2769 9.37517 0 9.7931 0 10.2414C0 11.7655 2.9107 13 6.5 13C10.0893 13 13 11.7655 13 10.2414C13 9.7931 12.7231 9.37517 12.2759 9Z" fill="white"/>
<path fill-rule="evenodd" clip-rule="evenodd" d="M12.2759 13C10.7536 13.8414 8.5839 14.2414 6.5 14.2414C4.4161 14.2414 2.2464 13.8414 0.7241 13C0.2769 13.3752 0 13.7931 0 14.2414C0 15.7655 2.9107 17 6.5 17C10.0893 17 13 15.7655 13 14.2414C13 13.7931 12.7231 13.3752 12.2759 13Z" fill="white"/>
</svg>
