<svg width="13" height="19" viewBox="0 0 13 19" fill="none" xmlns="http://www.w3.org/2000/svg">
<path fill-rule="evenodd" clip-rule="evenodd" d="M5.34552 0.115673C6.98449 1.64129 8.58204 3.20676 9.98094 4.96035C10.9425 6.16571 11.7761 7.44989 12.3183 8.90137C12.8719 10.3836 13.1466 11.9244 12.9209 13.4916C12.5948 15.757 11.3497 17.3509 9.16248 18.1547C8.96333 18.2278 8.75039 18.2638 8.54354 18.3155C8.52132 18.3211 8.49646 18.3162 8.41676 18.3162C8.4939 18.2454 8.5365 18.2031 8.58226 18.1646C9.62084 17.2912 10.2704 16.1775 10.6024 14.8754C11.0965 12.937 10.7321 11.1241 9.76272 9.40793C9.13579 8.29806 8.29746 7.36076 7.35508 6.51061C7.32942 6.48758 7.29679 6.47222 7.22603 6.42653C7.504 8.7337 6.95788 10.8239 5.80029 12.7785C5.70152 12.2456 5.56154 11.7338 5.31707 11.2561C5.07539 10.7839 4.76918 10.3616 4.34221 10.0155C4.20714 10.4069 4.10375 10.7758 3.95439 11.1251C3.65339 11.8291 3.31858 12.5185 3.01428 13.2212C2.70734 13.9299 2.56032 14.6769 2.61862 15.4474C2.66313 16.0355 2.90583 16.5675 3.25354 17.0389C3.54083 17.4283 3.86684 17.7892 4.18522 18.1744C4.11746 18.1543 4.04143 18.1383 3.97037 18.1097C2.84321 17.6569 1.84342 17.0249 1.08971 16.0526C0.423983 15.194 0.0812595 14.2163 0.0132867 13.1364C-0.0536595 12.0732 0.13552 11.0542 0.509847 10.0613C0.978471 8.81867 1.66956 7.69264 2.34255 6.55763C3.03811 5.38466 3.72033 4.20548 4.2504 2.94638C4.63566 2.0313 4.9404 1.08968 5.16345 0.122035C5.17013 0.0929335 5.18039 0.0646367 5.1999 0C5.26332 0.0500861 5.30717 0.0799184 5.34552 0.115673Z" fill="white"/>
</svg>
