<svg width="13" height="13" viewBox="0 0 13 13" fill="none" xmlns="http://www.w3.org/2000/svg">
<path fill-rule="evenodd" clip-rule="evenodd" d="M3.25005 3.48228C3.50647 3.48228 3.71434 3.27441 3.71434 3.018C3.71434 2.76158 3.50647 2.55371 3.25005 2.55371C2.99363 2.55371 2.78577 2.76158 2.78577 3.018C2.78577 3.27441 2.99363 3.48228 3.25005 3.48228Z" fill="white"/>
<path fill-rule="evenodd" clip-rule="evenodd" d="M13 5.10714V0.928571C13 0.415736 12.5843 0 12.0714 0H0.928571C0.415736 0 0 0.415736 0 0.928571V5.10714C0 5.61998 0.415736 6.03571 0.928571 6.03571V6.96429C0.415736 6.96429 0 7.38002 0 7.89286V12.0714C0 12.5843 0.415736 13 0.928571 13H12.0714C12.5843 13 13 12.5843 13 12.0714V7.89286C13 7.38002 12.5843 6.96429 12.0714 6.96429V6.03571C12.5843 6.03571 13 5.61998 13 5.10714ZM3.25 11.375C2.68664 11.375 2.17876 11.0356 1.96317 10.5152C1.74758 9.99469 1.86675 9.3956 2.2651 8.99724C2.66346 8.59889 3.26255 8.47972 3.78302 8.69531C4.3035 8.9109 4.64286 9.41878 4.64286 9.98214C4.64286 10.7514 4.01925 11.375 3.25 11.375V11.375ZM10.6786 10.4464H6.03571C5.7793 10.4464 5.57143 10.2386 5.57143 9.98214C5.57143 9.72573 5.7793 9.51786 6.03571 9.51786H10.6786C10.935 9.51786 11.1429 9.72573 11.1429 9.98214C11.1429 10.2386 10.935 10.4464 10.6786 10.4464ZM6.03571 2.55357H10.6786C10.935 2.55357 11.1429 2.76144 11.1429 3.01786C11.1429 3.27428 10.935 3.48214 10.6786 3.48214H6.03571C5.7793 3.48214 5.57143 3.27428 5.57143 3.01786C5.57143 2.76144 5.7793 2.55357 6.03571 2.55357ZM3.25 1.625C4.01925 1.625 4.64286 2.2486 4.64286 3.01786C4.64286 3.78711 4.01925 4.41071 3.25 4.41071C2.48075 4.41071 1.85714 3.78711 1.85714 3.01786C1.85714 2.2486 2.48075 1.625 3.25 1.625Z" fill="white"/>
<path fill-rule="evenodd" clip-rule="evenodd" d="M3.25005 10.4466C3.50647 10.4466 3.71434 10.2388 3.71434 9.98235C3.71434 9.72593 3.50647 9.51807 3.25005 9.51807C2.99363 9.51807 2.78577 9.72593 2.78577 9.98235C2.78577 10.2388 2.99363 10.4466 3.25005 10.4466Z" fill="white"/>
</svg>
