<?xml version="1.0" encoding="utf-8"?>
<!-- Generator: Adobe Illustrator 21.1.0, SVG Export Plug-In . SVG Version: 6.00 Build 0)  -->
<svg version="1.1" id="Layer_1" xmlns="http://www.w3.org/2000/svg" xmlns:xlink="http://www.w3.org/1999/xlink" x="0px" y="0px"
	 viewBox="0 0 40 40" style="enable-background:new 0 0 40 40;" xml:space="preserve">
<path d="M17.2,3.5c-4.7,4.3-5.7,10.9-3,16.2l-2.4,2.4l-2.2,0.1l-0.9,0c-0.8,0-1.4,0.7-1.4,1.4l0,0.9l-0.1,2.2L4.8,27L4,27
	c-0.8,0-1.4,0.7-1.4,1.4l0,0.9l-0.1,2.2l-1.9,1.9C0.2,33.8,0,34.2,0,34.6L0,37l0,1.5C0,39.3,0.7,40,1.5,40L3,40l2.4,0
	c0.4,0,0.8-0.2,1.1-0.4l13.7-13.7c5.1,2.6,11.5,1.7,15.8-2.5c5.5-5.5,5.3-14.4-0.4-19.7C30.5-1.1,22.3-1.2,17.2,3.5z M33.1,11.7
	c-1.4,2-4.3,2-5.7,0c-0.8-1.1-0.8-2.7,0-3.8c1.4-2,4.3-2,5.7,0C33.9,9,33.9,10.5,33.1,11.7z"/>
</svg>
