<?xml version="1.0" encoding="utf-8"?>
<!-- Generator: Adobe Illustrator 21.1.0, SVG Export Plug-In . SVG Version: 6.00 Build 0)  -->
<svg version="1.1" id="Layer_1" xmlns="http://www.w3.org/2000/svg" xmlns:xlink="http://www.w3.org/1999/xlink" x="0px" y="0px"
	 viewBox="0 0 34.5 40" style="enable-background:new 0 0 34.5 40;" xml:space="preserve">
<style type="text/css">
	.st0{fill:#3f3f41;}
</style>

<path class="st0" d="M4,30.6l0.7-4.2C5.2,24.1,4,21.9,0,21.9v-3.8c4,0,5.2-2.2,4.8-4.6L4,9.4C2.9,2.6,6.4,0,13.8,0v3.8C9.9,3.9,8.5,5.1,9.1,9.3
	l0.7,4.8c0.5,3.1-1.3,5.1-4.3,5.9c3,0.7,4.8,2.8,4.3,5.9l-0.7,4.7c-0.6,4.2,0.8,5.5,4.7,5.6V40C6.4,40,2.9,37.3,4,30.6z"/>
<path class="st0" d="M20.8,36.2c3.8-0.1,5.3-1.3,4.6-5.6l-0.7-4.7C24.2,22.7,26,20.7,29,20c-3-0.7-4.8-2.8-4.3-5.9l0.7-4.8
	c0.6-4.2-0.8-5.4-4.6-5.5V0c7.3,0,10.9,2.6,9.7,9.4l-0.7,4.2c-0.4,2.3,0.7,4.6,4.7,4.6v3.8c-4,0-5.1,2.2-4.7,4.6l0.7,4.2
	c1.2,6.7-2.4,9.4-9.7,9.4V36.2z"/>
</svg>
