<svg id="Layer_1" data-name="Layer 1" xmlns="http://www.w3.org/2000/svg" viewBox="0 0 708.74 800"><title>icon</title><polygon points="109.84 168.67 168.82 134.76 176.78 148.47 394.1 23 378.33 13.86 362.26 4.57 354.29 0 0 204.64 0 213.78 101.88 154.96 109.84 168.67"/><polygon points="109.84 297.53 280.28 199.04 288.24 212.9 505.57 87.43 489.64 78.14 473.87 69 465.9 64.43 0 333.36 0 342.5 101.73 283.67 109.84 297.53"/><polygon points="109.84 361.96 336.01 231.33 343.97 245.04 561.45 119.42 545.52 110.43 529.6 101.14 521.49 96.57 0 397.64 0 406.93 101.73 348.1 109.84 361.96"/><polygon points="109.84 426.24 393.22 262.59 401.33 276.3 617.18 151.71 601.11 142.43 585.18 133.28 577.22 128.71 0 462.07 0 471.21 101.73 412.38 109.84 426.24"/><polygon points="109.84 490.53 448.95 294.73 456.91 308.59 672.76 183.86 656.84 174.71 641.06 165.43 633.1 160.85 0 526.36 0 535.5 101.73 476.81 109.84 490.53"/><polygon points="696.79 197.72 688.83 193 0 590.78 0 599.93 101.73 541.25 109.84 554.96 448.95 359.16 456.91 372.87 708.74 227.65 708.74 209.22 708.74 204.64 696.79 197.72"/><polygon points="43.79 639 100.85 606.12 108.81 619.83 447.48 424.33 455.44 438.19 708.74 291.93 708.74 273.5 708.74 255.07 708.74 245.93 35.83 634.43 43.79 639"/><polyline points="447.48 488.76 455.44 502.62 708.74 356.36 708.74 337.93 708.74 319.5 708.74 310.36 91.56 666.57 99.52 671.14 157.61 637.67 165.43 651.53"/><polygon points="155.25 703.43 213.34 669.81 221.31 683.67 447.48 553.04 455.44 566.9 708.74 420.64 708.74 402.21 708.74 383.93 708.74 374.64 147.29 698.71 155.25 703.43"/><polygon points="210.98 735.57 269.07 702.1 277.04 715.81 447.48 617.47 455.44 631.18 708.74 484.92 708.74 466.64 708.74 448.21 708.74 439.07 203.02 731 210.98 735.57"/><polygon points="258.75 763.14 266.72 767.71 324.81 734.24 332.62 748.1 447.48 681.75 455.44 695.61 708.74 549.36 708.74 530.92 708.74 512.5 708.74 503.35 258.75 763.14"/><polygon points="322.45 800 380.54 766.38 388.5 780.24 447.48 746.04 455.44 759.9 708.74 613.78 708.74 595.36 708.74 576.93 708.74 567.78 314.49 795.43 322.45 800"/><polygon points="449.98 55.14 433.91 46 433.91 46 417.99 36.86 410.03 32.14 0 268.93 0 278.07 101.73 219.39 109.84 233.1 224.55 166.9 232.51 180.76 449.98 55.14"/></svg>