<svg width="96" height="110" viewBox="0 0 96 110" fill="none" xmlns="http://www.w3.org/2000/svg">
<path fill-rule="evenodd" clip-rule="evenodd" d="M53.7779 61.544C53.3293 64.6697 50.7014 66.9925 47.5828 66.9925C44.4638 66.9925 41.8359 64.6697 41.3878 61.544L36.7304 28.3962C36.7304 22.2964 41.58 17.3684 47.5828 17.3684C53.5857 17.3684 58.4348 22.2964 58.4348 28.3962L53.7779 61.544ZM47.5828 92.6316C41.58 92.6316 36.7304 87.8269 36.7304 81.8797C36.7304 75.9325 41.58 71.1278 47.5828 71.1278C53.5857 71.1278 58.4348 75.9325 58.4348 81.8797C58.4348 87.8269 53.5857 92.6316 47.5828 92.6316ZM48.0002 0L0 27.5001V82.4999L48.0002 110L96 82.4999V27.5001L48.0002 0Z" fill="#F16262"/>
</svg>
