<svg width="256" height="256" viewBox="0 0 256 256" fill="none" xmlns="http://www.w3.org/2000/svg">
  <path d="M128 256C198.692 256 256 198.692 256 128C256 57.3076 198.692 0 128 0C57.3076 0 0 57.3076 0 128C0 198.692 57.3076 256 128 256Z" fill="#F0B90B"/>
  <path fill-rule="evenodd" clip-rule="evenodd" d="M73.5244 95.488L128.052 40.96L149.795 62.702L95.2665 117.23L73.5244 95.488ZM73.5641 160.648L160.705 73.5065L182.447 95.2486L95.3062 182.39L73.5641 160.648ZM193.297 106.159L106.155 193.3L127.896 215.04L215.04 127.9L193.297 106.159ZM40.96 128.046L62.702 106.304L84.4441 128.046L62.702 149.788L40.96 128.046Z" fill="white"/>
</svg>
