<svg width="256" height="256" viewBox="0 0 256 256" fill="none" xmlns="http://www.w3.org/2000/svg">
  <path d="M128 256C198.934 256 256 198.934 256 128C256 57.0662 198.934 0 128 0C57.0662 0 0 57.0662 0 128C0 198.934 57.0662 256 128 256Z" fill="#2775CA"/>
  <path d="M163.2 148.266C163.2 129.6 152 123.2 129.6 120.534C113.6 118.4 110.4 114.134 110.4 106.666C110.4 99.1986 115.734 94.3999 126.4 94.3999C136 94.3999 141.334 97.5999 144 105.6C144.534 107.2 146.134 108.266 147.734 108.266H156.266C158.4 108.266 160 106.666 160 104.534V104C157.866 92.2662 148.266 83.1999 136 82.1337V69.3337C136 67.1999 134.4 65.5999 131.734 65.0662H123.734C121.6 65.0662 120 66.6662 119.466 69.3337V81.5999C103.466 83.7337 93.3339 94.3999 93.3339 107.734C93.3339 125.334 104 132.266 126.4 134.934C141.334 137.6 146.134 140.8 146.134 149.334C146.134 157.867 138.666 163.734 128.534 163.734C114.666 163.734 109.866 157.866 108.266 149.866C107.734 147.734 106.134 146.666 104.534 146.666H95.4664C93.3339 146.666 91.7339 148.266 91.7339 150.4V150.934C93.8664 164.266 102.4 173.866 120 176.534V189.334C120 191.466 121.6 193.066 124.266 193.6H132.266C134.4 193.6 136 192 136.534 189.334V176.534C152.534 173.866 163.2 162.666 163.2 148.266Z" fill="white"/>
  <path d="M100.8 204.266C59.1997 189.334 37.8659 142.934 53.3334 101.866C61.3334 79.4662 78.9334 62.4 100.8 54.4C102.933 53.3337 104 51.7337 104 49.0662V41.6C104 39.4662 102.933 37.8662 100.8 37.3337C100.266 37.3337 99.1997 37.3337 98.6659 37.8662C47.9997 53.8662 20.2659 107.734 36.2659 158.4C45.8659 188.266 68.7997 211.2 98.6659 220.8C100.8 221.866 102.933 220.8 103.466 218.666C104 218.134 104 217.6 104 216.534V209.066C104 207.466 102.4 205.334 100.8 204.266ZM157.333 37.8662C155.2 36.8 153.066 37.8662 152.533 40C152 40.5337 152 41.0662 152 42.1337V49.6C152 51.7337 153.6 53.8662 155.2 54.9337C196.8 69.8662 218.133 116.266 202.666 157.334C194.666 179.734 177.066 196.8 155.2 204.8C153.066 205.866 152 207.466 152 210.134V217.6C152 219.734 153.066 221.334 155.2 221.866C155.733 221.866 156.8 221.866 157.333 221.334C208 205.334 235.733 151.466 219.733 100.8C210.133 70.4 186.666 47.4662 157.333 37.8662V37.8662Z" fill="white"/>
</svg>
