<svg width="256" height="256" viewBox="0 0 256 256" fill="none" xmlns="http://www.w3.org/2000/svg">
  <path d="M128 256C198.692 256 256 198.692 256 128C256 57.3075 198.692 0 128 0C57.3076 0 0 57.3075 0 128C0 198.692 57.3076 256 128 256Z" fill="#26A17B"/>
  <path d="M141.642 139.812V139.791C140.758 139.853 136.189 140.121 126.023 140.121C117.895 140.121 112.194 139.894 110.177 139.791V139.812C78.9183 138.433 55.6026 133 55.6026 126.477C55.6026 119.974 78.9389 114.521 110.177 113.142V134.4C112.215 134.544 118.08 134.894 126.167 134.894C135.88 134.894 140.737 134.482 141.642 134.4V113.162C172.84 114.562 196.094 119.995 196.094 126.497C196.094 133 172.819 138.433 141.642 139.833V139.812ZM141.642 110.96V91.9457H185.167V62.9502H66.6739V91.9457H110.198V110.96C74.8231 112.586 48.2354 119.583 48.2354 127.979C48.2354 136.375 74.8437 143.372 110.198 145.018V205.973H141.663V145.018C176.976 143.393 203.523 136.396 203.523 128C203.523 119.624 176.976 112.607 141.663 110.981" fill="white"/>
</svg>
