<svg width="214" height="214" viewBox="0 0 214 214" fill="none" xmlns="http://www.w3.org/2000/svg">
<path d="M107.979 5C51.6547 5 6 50.6531 6 106.976C6 163.298 51.6547 208.951 107.979 208.951C164.303 208.951 209.958 163.298 209.958 106.976C209.958 50.6604 164.303 5 107.979 5ZM170.698 137.053C159.448 160.264 135.662 176.268 108.139 176.275C69.7061 176.275 38.5389 145.022 38.6478 106.591C38.6986 88.4748 45.6811 71.9845 57.0839 59.6458C57.6065 59.0797 58.521 59.7329 58.1436 60.4079C53.4838 68.6748 50.7547 78.6401 50.7547 89.3675C50.7547 117.979 70.1053 141.183 93.9705 141.183C109.002 141.183 122.242 131.972 129.979 118.008C130.146 117.71 130.509 117.587 130.821 117.732L170.379 136.182C170.713 136.32 170.858 136.719 170.698 137.053ZM170.379 77.3918L130.117 96.1683C129.798 96.3207 129.427 96.1829 129.26 95.8708C125.058 87.7563 116.326 82.3635 106.404 83.0676C94.6673 83.895 85.1953 93.4103 84.4042 105.147C83.6638 116.164 90.4358 125.701 100.104 129.163C100.314 129.236 100.234 129.396 99.9804 129.403C99.7554 129.41 99.5232 129.41 99.2909 129.41C78.0459 129.41 60.8147 108.761 60.8147 83.2853C60.8147 82.7409 60.822 82.2039 60.8365 81.6668C61.5333 57.5483 81.2395 38.2927 105.344 37.3491C106.266 37.3128 107.188 37.2983 108.117 37.2983C135.648 37.2983 159.433 53.3023 170.684 76.5208C170.858 76.8401 170.713 77.2393 170.379 77.3918Z" fill="url(#paint0_linear)"/>
<defs>
<linearGradient id="paint0_linear" x1="194.417" y1="201.976" x2="-0.583377" y2="5.00001" gradientUnits="userSpaceOnUse">
<stop stop-color="#3DEDD6"/>
<stop offset="1" stop-color="#2C55DD"/>
</linearGradient>
</defs>
</svg>