<svg xmlns="http://www.w3.org/2000/svg" viewBox="0 0 84.8 103.11">
    <defs>
        <style>
            .mew-cls-1 {
                fill: #fff;
            }

            .mew-cls-2 {
                fill: #07a6b3;
            }

            .mew-cls-3 {
                fill: #d8d8d8;
            }
        </style>
    </defs>
    <g id="Layer_2" data-name="Layer 2">
        <path class="mew-cls-1"
            d="M46.37,57.54H38.44a21.45,21.45,0,0,1-10.33-2.28,15.7,15.7,0,0,1-6.57-6.54,21.29,21.29,0,0,1-2.28-10.29v-1a21.25,21.25,0,0,1,2.28-10.28,15.78,15.78,0,0,1,6.57-6.55,21.57,21.57,0,0,1,10.33-2.27h7.93a21.52,21.52,0,0,1,10.32,2.27,15.78,15.78,0,0,1,6.57,6.55,21.27,21.27,0,0,1,2.29,10.28v1a21.29,21.29,0,0,1-2.29,10.29,15.7,15.7,0,0,1-6.57,6.54A21.41,21.41,0,0,1,46.37,57.54ZM38.44,20.85a19.16,19.16,0,0,0-9.15,2,13.22,13.22,0,0,0-5.54,5.52,18.84,18.84,0,0,0-2,9.1v1a18.91,18.91,0,0,0,2,9.11,13.28,13.28,0,0,0,5.54,5.52,19.16,19.16,0,0,0,9.15,2h7.93a19.16,19.16,0,0,0,9.15-2,13.34,13.34,0,0,0,5.54-5.52,18.91,18.91,0,0,0,2-9.11v-1a18.87,18.87,0,0,0-2-9.1,13.28,13.28,0,0,0-5.54-5.52,19.16,19.16,0,0,0-9.15-2Z" />
        <circle id="left-eye" class="mew-cls-1" cx="28.49" cy="38.24" r="4.73" />
        <circle id="right-eye" class="mew-cls-1" cx="56.31" cy="38.24" r="4.73" />
        <path class="mew-cls-1"
            d="M42.4,43.34a6.15,6.15,0,0,1-6.28-6,1.25,1.25,0,0,1,2.5,0,3.79,3.79,0,0,0,7.56,0,1.25,1.25,0,0,1,2.5,0A6.14,6.14,0,0,1,42.4,43.34Z" />
        <path class="mew-cls-2"
            d="M42.4,50.37A25.74,25.74,0,0,0,16.66,76.12a24.68,24.68,0,0,0,.21,3.23A6.91,6.91,0,0,1,27.1,82.83L29,88.22a6.51,6.51,0,0,1-.27,5,6.59,6.59,0,0,1-2.62,2.84,25.75,25.75,0,0,0,32.56,0,6.56,6.56,0,0,1-2.57-2.82,6.46,6.46,0,0,1-.26-5l1.92-5.39a6.93,6.93,0,0,1,6.56-4.54,7.25,7.25,0,0,1,2.28.37,7,7,0,0,1,1.33.63,27.67,27.67,0,0,0,.2-3.17A25.75,25.75,0,0,0,42.4,50.37Z" />
        <path
            d="M42.41,92.39c-8.76,0-16.28-7.09-16.28-15.85a18.06,18.06,0,0,1,1.1-6.23l7,3-.08.37a8.34,8.34,0,0,0-.37,2.1,3,3,0,0,0,0,.42v.1a8.57,8.57,0,0,0,10.55,8.25l4,6.75A15.81,15.81,0,0,1,42.41,92.39Z" />
        <path
            d="M57.61,82.18l-.17.38L39.68,75,51.08,75c-.41-4.12-4.66-7.48-8.67-7.48a8,8,0,0,0-2.66.45l-4-6.68a15.91,15.91,0,0,1,6.62-1.44,16.32,16.32,0,0,1,16.26,16A16.7,16.7,0,0,1,57.61,82.18Z" />
        <path class="mew-cls-1"
            d="M21.39,85.36a1.24,1.24,0,0,1-1.18-.85A1.26,1.26,0,0,1,21,82.92l5.89-2a1.25,1.25,0,1,1,.8,2.37l-5.89,2A1.12,1.12,0,0,1,21.39,85.36Z" />
        <path class="mew-cls-1"
            d="M23.65,90.43a1.27,1.27,0,0,1-1.18-.84A1.25,1.25,0,0,1,23.24,88l5.86-2.06a1.25,1.25,0,0,1,.83,2.36l-5.86,2.06A1.54,1.54,0,0,1,23.65,90.43Z" />
        <path class="mew-cls-1"
            d="M62.25,99.54a9.46,9.46,0,0,1-3-.49l-.11,0a9.2,9.2,0,0,1-5.29-4.71,9,9,0,0,1-.36-6.93L55.42,82a9.5,9.5,0,0,1,11.91-5.73l.11,0A9.09,9.09,0,0,1,72.73,81a9,9,0,0,1,.37,6.94l-1.92,5.38A9.48,9.48,0,0,1,62.25,99.54Zm2.09-21.25a6.93,6.93,0,0,0-6.56,4.54l-1.92,5.39a6.46,6.46,0,0,0,.26,5A6.6,6.6,0,0,0,60,96.65a7,7,0,0,0,8.85-4.17l1.92-5.38a6.46,6.46,0,0,0-.26-5,6.7,6.7,0,0,0-3.86-3.43A7.25,7.25,0,0,0,64.34,78.29Z" />
        <path class="mew-cls-1"
            d="M63.48,85.36a1.12,1.12,0,0,1-.4-.07l-5.89-2a1.25,1.25,0,1,1,.8-2.37l5.89,2a1.26,1.26,0,0,1,.78,1.59A1.24,1.24,0,0,1,63.48,85.36Z" />
        <path class="mew-cls-1"
            d="M61.22,90.43a1.54,1.54,0,0,1-.42-.07L54.94,88.3a1.26,1.26,0,0,1-.76-1.6,1.24,1.24,0,0,1,1.59-.76L61.63,88a1.25,1.25,0,0,1,.77,1.59A1.27,1.27,0,0,1,61.22,90.43Z" />
        <path class="mew-cls-1"
            d="M18.18,97C12,96.54,7.45,94.1,4.85,89.85c-3.32-5.44-3-13.74.65-20.17,3.24-5.64,7.41-9.28,13-11.17a24.78,24.78,0,0,1-2-2c-5.57,2.16-9.82,6-13.18,11.9-3.5,6.08-5,15.47-.62,22.72,2.39,3.92,7.39,8.45,17.7,8.45.56,0,1.15,0,1.75,0A1.55,1.55,0,0,0,23.25,99a2.07,2.07,0,0,0,.44-.82A8.3,8.3,0,0,1,18.18,97Z" />
        <path class="mew-cls-1"
            d="M81.47,68.43c-3.37-5.85-7.61-9.74-13.19-11.9a23.12,23.12,0,0,1-2,2c5.6,1.89,9.76,5.53,13,11.17,3.7,6.43,4,14.73.65,20.17C77.37,94.09,72.83,96.52,66.7,97a8.27,8.27,0,0,1-5.59,1.19,2.1,2.1,0,0,0,.45.84,1.51,1.51,0,0,0,1.07.52c.61,0,1.19,0,1.76,0,10.31,0,15.31-4.53,17.7-8.45C86.52,83.89,85,74.51,81.47,68.43Z" />
        <path class="mew-cls-1"
            d="M22.62,99.54a9.46,9.46,0,0,1-8.92-6.22l-1.92-5.38A9,9,0,0,1,12.14,81a9.09,9.09,0,0,1,5.29-4.7l.11,0A9.5,9.5,0,0,1,29.45,82l1.92,5.39A9,9,0,0,1,31,94.31,9.15,9.15,0,0,1,25.72,99l-.11,0A9.46,9.46,0,0,1,22.62,99.54Zm-6.57-7.06a7,7,0,0,0,8.77,4.2,6.67,6.67,0,0,0,3.93-3.45,6.51,6.51,0,0,0,.27-5L27.1,82.83a7,7,0,0,0-8.77-4.19,6.71,6.71,0,0,0-3.94,3.45,6.5,6.5,0,0,0-.26,5Z" />
        <path class="mew-cls-1"
            d="M8.78,36.83a11,11,0,0,1-1.39-.1A8.84,8.84,0,0,1,3.18,35,7.9,7.9,0,0,1,.59,31.57,8.91,8.91,0,0,1,.12,27L.3,25.75A9,9,0,0,1,2,21.52a7.87,7.87,0,0,1,3.43-2.6A8.87,8.87,0,0,1,10,18.45a8.87,8.87,0,0,1,4.21,1.7,8,8,0,0,1,2.59,3.45,9.15,9.15,0,0,1,.47,4.53L17,29.43a9,9,0,0,1-1.7,4.22,7.87,7.87,0,0,1-3.43,2.6A8.45,8.45,0,0,1,8.78,36.83Zm-.22-16a6,6,0,0,0-2.22.4A5.31,5.31,0,0,0,4,23a6.46,6.46,0,0,0-1.21,3.06l-.19,1.3a6.61,6.61,0,0,0,.33,3.28A5.4,5.4,0,0,0,4.69,33a6.33,6.33,0,0,0,3.05,1.22A6.32,6.32,0,0,0,11,33.92a5.25,5.25,0,0,0,2.34-1.77,6.37,6.37,0,0,0,1.22-3.07l.18-1.29a6.43,6.43,0,0,0-.33-3.29,5.3,5.3,0,0,0-1.77-2.36,6.45,6.45,0,0,0-3-1.22h0A7.47,7.47,0,0,0,8.56,20.85Z" />
        <path class="mew-cls-3"
            d="M7.29,30.55l-.25,0a1.63,1.63,0,0,1-1.36-1.86l.66-4.27a1.63,1.63,0,0,1,3.22.5L8.9,29.17A1.64,1.64,0,0,1,7.29,30.55Z" />
        <path class="mew-cls-3"
            d="M77.51,30.55a1.64,1.64,0,0,1-1.61-1.38l-.66-4.27a1.63,1.63,0,1,1,3.22-.5l.66,4.27a1.63,1.63,0,0,1-1.36,1.86Z" />
        <path class="mew-cls-1"
            d="M14.41,51.32c-2.32-4.34-3.31-9.13-3.31-16V33.87l-.1.05a6,6,0,0,1-2.4.4v1c0,7.31,1.08,12.45,3.61,17.18a24.68,24.68,0,0,0,8.73,9.4c.47-.7,1-1.38,1.49-2A22.21,22.21,0,0,1,14.41,51.32Z" />
        <path class="mew-cls-1"
            d="M76.06,36.83a8.65,8.65,0,0,1-3.1-.56,7.74,7.74,0,0,1-3.42-2.52,8.68,8.68,0,0,1-1.7-4.12l-.25-1.76a8.5,8.5,0,0,1,.47-4.42,7.76,7.76,0,0,1,2.58-3.36,9.54,9.54,0,0,1,8.68-1.19,7.8,7.8,0,0,1,3.42,2.52,8.57,8.57,0,0,1,1.69,4.12l.26,1.76a8.77,8.77,0,0,1-.47,4.43,7.68,7.68,0,0,1-2.59,3.35,8.94,8.94,0,0,1-4.19,1.65A9.34,9.34,0,0,1,76.06,36.83Zm.15-16a7.47,7.47,0,0,0-1,.07,6.52,6.52,0,0,0-3,1.18,5.21,5.21,0,0,0-1.75,2.27,6.21,6.21,0,0,0-.32,3.15l.26,1.75a6.09,6.09,0,0,0,1.19,2.95,5.34,5.34,0,0,0,2.33,1.72,7.09,7.09,0,0,0,6.3-.87,5.11,5.11,0,0,0,1.75-2.26,6,6,0,0,0,.32-3.16L82,25.9A6.18,6.18,0,0,0,80.76,23a5.24,5.24,0,0,0-2.33-1.71A6.24,6.24,0,0,0,76.21,20.85Z" />
        <path class="mew-cls-1"
            d="M70.39,15.1a25.76,25.76,0,0,1,2.42,6.57,6.75,6.75,0,0,1,2.36-.75h0a28.21,28.21,0,0,0-2.58-7A24.68,24.68,0,0,0,62.3,3.61C57.57,1.08,52.44,0,45.14,0H39.42c-7.08,0-12.3,1.14-16.91,3.61a24.62,24.62,0,0,0-10.3,10.31,27.8,27.8,0,0,0-2.6,7,6.75,6.75,0,0,1,2.38.79,25.91,25.91,0,0,1,2.42-6.61,22.29,22.29,0,0,1,9.28-9.29c4.29-2.29,9-3.29,15.73-3.31h5.72c6.86,0,11.64,1,16,3.31A22.26,22.26,0,0,1,70.39,15.1Z" />
        <path class="mew-cls-1"
            d="M73.84,33.94l-.14-.07v1.45c0,6.87-1,11.66-3.31,16a22.14,22.14,0,0,1-8,8.55,24.59,24.59,0,0,1,1.49,2,24.7,24.7,0,0,0,8.74-9.4c2.53-4.73,3.6-9.87,3.6-17.18v-1A6.32,6.32,0,0,1,73.84,33.94Z" />
        <path class="mew-cls-1"
            d="M42.4,100.61A24.41,24.41,0,0,1,27.19,95.3a6.78,6.78,0,0,1-2.29,1.34,26.91,26.91,0,0,0,35,0,6.65,6.65,0,0,1-2.28-1.36A24.34,24.34,0,0,1,42.4,100.61Z" />
        <path class="mew-cls-1"
            d="M42.4,49.12A27,27,0,0,0,15.73,80.26a6.68,6.68,0,0,1,2.32-1.5,25.64,25.64,0,0,1-.14-2.64,24.5,24.5,0,1,1,49,0,24.87,24.87,0,0,1-.14,2.6,6.62,6.62,0,0,1,2.33,1.46A27,27,0,0,0,42.4,49.12Z" />
    </g>
</svg>