<svg xmlns="http://www.w3.org/2000/svg" xmlns:xlink="http://www.w3.org/1999/xlink" viewBox="0 0 252.62 252.62"><defs><style>.cls-1{fill:#c4c4c4;}.cls-2{mask:url(#mask);}.cls-3{fill:#fff;}.cls-4{mask:url(#mask-2);}.cls-5{mask:url(#mask-3);}</style><mask id="mask" x="0" y="-9.09" width="261.08" height="261.7" maskUnits="userSpaceOnUse"><g id="mask3"><path class="cls-1" d="M38.86,33.15,49.74,22.41a109.23,109.23,0,0,1,154.47,1l25.37,25.7a109.22,109.22,0,0,1-1,154.47l-10.88,10.74Z"/></g></mask><mask id="mask-2" x="37.97" y="33.91" width="182.8" height="183.63" maskUnits="userSpaceOnUse"><g id="mask1"><path class="cls-1" d="M180.8,49l-2-1.24a92.06,92.06,0,0,0-97,156.51l2,1.24Z"/></g></mask><mask id="mask-3" x="19.13" y="19.68" width="213.98" height="214.7" maskUnits="userSpaceOnUse"><g id="mask2"><path class="cls-1" d="M221.83,178.55l-1.4,2.39A108.06,108.06,0,0,1,34,71.68l1.4-2.39Z"/></g></mask></defs><g id="Layer_2" data-name="Layer 2"><g id="Layer_1-2" data-name="Layer 1"><g class="cls-2"><path class="cls-3" d="M125.5,252.62a126,126,0,1,1,47.58-9A125.83,125.83,0,0,1,125.5,252.62Zm1.6-249A122.71,122.71,0,0,0,39,212.52,122.72,122.72,0,1,0,213.64,40.09,121.93,121.93,0,0,0,127.1,3.59Z"/></g><path class="cls-3" d="M125.52,250.45a123.85,123.85,0,0,1-86.21-212,123.85,123.85,0,1,1,174,176.28A123.06,123.06,0,0,1,125.52,250.45ZM127.11,4.19A122.41,122.41,0,0,0,39.2,212.6a122.42,122.42,0,0,0,174.24-172A121.62,121.62,0,0,0,127.11,4.19Z"/><path class="cls-3" d="M125.64,232.14A105.54,105.54,0,0,1,52.17,51.49a105.54,105.54,0,0,1,148.3,150.22A104.84,104.84,0,0,1,125.64,232.14ZM127,22.49A104.11,104.11,0,0,0,52.23,199.74,104.11,104.11,0,1,0,200.41,53.46,103.44,103.44,0,0,0,127,22.49Z"/><path class="cls-3" d="M126.57,213.88a89,89,0,1,1,63.12-25.67A88.48,88.48,0,0,1,126.57,213.88Zm1.14-176.62a87.59,87.59,0,1,0,61.77,26.06A87,87,0,0,0,127.71,37.26Z"/><g class="cls-4"><path class="cls-3" d="M128.61,217.55a91.7,91.7,0,1,1,21.65-2.46A92.33,92.33,0,0,1,128.61,217.55Zm1.48-179.21a88.18,88.18,0,0,0-20.79,2.35,87.36,87.36,0,1,0,20.79-2.35Z"/></g><g class="cls-5"><path class="cls-3" d="M125.27,233.64a107,107,0,0,1-91.39-161A106.93,106.93,0,0,1,218.4,180.72h0a106.24,106.24,0,0,1-65.25,49.4A108,108,0,0,1,125.27,233.64ZM127,23.28A103.75,103.75,0,0,0,100,26.67,103.34,103.34,0,0,0,73.89,215.82,103.35,103.35,0,0,0,215.3,178.91l1.55.9-1.55-.9A103.41,103.41,0,0,0,127,23.28Z"/></g><circle class="cls-3" cx="127.94" cy="125.71" r="62.94"/></g></g></svg>