<?xml version="1.0" encoding="UTF-8"?>
<svg width="153px" height="144px" viewBox="0 0 153 144" version="1.1" xmlns="http://www.w3.org/2000/svg" xmlns:xlink="http://www.w3.org/1999/xlink">
    <title>Varen Finance</title>
    <g id="Page-1" stroke="none" stroke-width="1" fill="none" fill-rule="evenodd">
        <g id="MetaLanding" transform="translate(-246.000000, -91.000000)">
            <g id="Icon" transform="translate(247.000000, 91.000000)">
                <g id="Group-5-Copy-2">
                    <g id="Group-2-Copy-2" transform="translate(76.000000, 72.000000) scale(-1, 1) translate(-76.000000, -72.000000) ">
                        <path d="M0.101223266,84.2239683 C0.497448593,81.0721596 1.55404947,79.0234839 2.21442501,77.7627605 C6.3087534,70.0408291 15.9502364,53.8090143 17.6672128,50.814796 C18.1955132,50.0268438 18.8558888,48.7661203 19.3841892,47.0326256 C20.0445648,45.1415403 20.308715,43.2504551 20.4407901,42.7776838 C20.5728652,41.9897316 20.5728652,41.9897316 20.7049403,41.3593699 C20.7049403,41.044189 21.1011656,38.8379229 22.0256914,36.9468377 C22.818142,35.2133429 23.7426678,34.1102099 24.4030434,33.1646672 C29.9501979,26.8610498 37.6068219,22.2581263 39.3275307,16.9328524 C39.5537308,16.2328051 39.8779451,15.4798808 40.2827969,14.7022273 C40.3273814,14.6165878 40.7769296,2.00817199 40.8234468,1.92197036 C43.5677446,-3.16353127 49.2309592,3.36047165 53.8557927,4.16802714 C68.2519796,6.6894741 77.3825114,16.5968053 89.9296468,26.3674123 C90.773085,27.0641372 94.3039308,31.4251041 100.280473,36.9468377 C104.264834,40.6279934 109.800919,49.5297702 116.88873,63.6521679 L119.75198,76.2713312 L124.534891,92.2791113 C124.408537,93.2150755 124.169039,96.1095632 123.816395,100.962574 C122.899429,113.581667 116.797046,127.464799 115.212145,134.083598 C110.985742,132.507693 75.8880047,140.446947 59.7748414,143.441165 C57.2115999,143.894266 54.2218667,144.143813 50.811773,143.91181 C49.8451271,143.846045 62.8844184,118.368156 89.9296468,67.4781438 C59.4546308,117.776972 43.8664078,142.835973 43.1649776,142.655147 C38.8064397,141.531534 33.9504814,139.603315 28.6051156,136.507186 C31.0705177,135.771764 43.5044348,118.91687 65.9068671,85.9425041 C68.3954309,81.5234503 69.6397127,77.2456088 69.6397127,73.1089796 C69.6397127,68.4542691 67.853646,63.2790349 64.2815126,57.5832771 C64.131403,61.0826591 63.7602429,63.9465669 63.1680324,66.1750005 C62.2797166,69.5176508 51.1998362,83.1239311 47.7803377,84.3815587 C42.2506477,86.4152754 44.5488051,82.9482858 36.0959981,85.9425041 C34.5110968,86.4152754 32.6620453,87.2032276 30.6809186,89.0943128 C28.1714915,91.4581693 25.5705168,94.4411533 25.5705168,94.4411533 C25.1742915,95.2291055 25.0422164,95.5442863 24.6459911,96.489829 C24.1176906,97.592962 20.7049403,102.189278 19.2521141,103.450001 C17.7992879,104.710725 16.4785368,105.341087 15.554011,105.656268 C14.7615604,105.971448 14.1011848,106.129039 13.9691097,106.129039 C12.1200582,106.60181 10.5351569,106.44422 9.74270624,106.44422 C8.83938406,106.290244 4.99206529,102.290225 4.25212588,101.726828 C3.67577125,101.287986 45.9109682,67.6248114 45.7977644,67.4781438 C45.6311468,67.262273 40.9727043,63.5673336 36.0959981,70.8009583 C20.2177587,94.3531713 4.44208279,102.042257 4.25212588,101.726828 C3.65059264,100.727965 3.23038824,99.8326966 3.00687567,99.3526501 C1.81819969,96.8312031 1.42197436,94.624937 0.761598812,91.000357 C0.101223266,88.4789101 -0.162926953,86.5878248 0.101223266,84.2239683 Z M32.8661142,22.4769648 C32.5114914,22.6838621 32.5084109,22.033628 32.7299246,21.2305837 C32.9514383,20.4275393 33.5168145,8.25173661 33.5633316,8.16553497 C34.8261919,5.82530874 36.7655369,5.34176068 38.8206295,6.83183674 C39.0247628,6.97984663 38.9615253,9.57301088 38.6309172,14.6113295 C36.5776063,18.8108117 34.6560053,21.4326902 32.8661142,22.4769648 Z M29.6344098,50.1643766 L37.1777242,46.2365206 C38.6687418,44.880774 39.6006279,42.6211963 39.6006279,40.1356608 L39.6006279,36.972252 C39.6006279,35.6165054 37.0431452,34.3784926 36.4536482,35.5082814 L28.4179956,48.9480138 C27.1133552,50.9816338 27.7061846,50.9816338 29.6344098,50.1643766 Z M2.22175699,87.1961032 C2.48742613,89.0157077 2.33792114,88.2009625 2.4540853,88.7751678 C2.68641361,89.7800271 3.10894754,91.9750659 3.34127585,92.8363739 C3.70020627,93.6439635 4.32573039,93.6439635 4.49890197,92.9491656 C4.49890197,92.662063 5.28441183,90.0401111 5.74906844,88.8917004 C6.09756091,88.0303925 4.94867385,85.0470016 4.13552476,84.4727963 C3.26138967,83.9457903 1.95608784,85.3764987 2.22175699,87.1961032 Z" id="Combined-Shape" fill="#DDDDDD" fill-rule="nonzero"></path>
                        <g id="Group-8" transform="translate(79.578525, 55.800707)">
                            <path d="M71.2849063,30.6068318 C71.2849063,30.6068318 69.0561223,21.742843 49.9836623,18.474941 C37.6598144,16.3640007 27.8077825,23.7432087 15.9571959,27.4995769 C4.10752314,31.2551131 1.13387944,28.5624531 1.13387944,28.5624531 C1.13387944,28.5624531 10.6381047,43.0623508 27.7481166,44.8589415 C44.8579979,46.6545702 66.8457764,27.3816151 66.8457764,27.3816151 C66.8457764,27.3816151 71.2849063,30.6068318 71.2849063,30.6068318 Z" id="Path" fill="#DDDDDD" fill-rule="nonzero" transform="translate(36.209393, 31.539660) scale(-1, 1) rotate(-36.000000) translate(-36.209393, -31.539660) "></path>
                            <path d="M32.6615691,49.7481949 C36.1772273,50.2684615 40.9504507,50.0945843 46.9812394,49.2265634 C56.0274223,47.924532 59.6799184,45.7355898 61.3164949,45.4131464 C62.407546,45.1981842 64.0808538,45.1981842 66.3364183,45.4131464 C64.1855459,47.0693496 61.9356851,48.3404886 59.5868359,49.2265634 C56.0635622,50.5556756 54.203535,51.2432798 50.3077254,51.6796998 C46.4119157,52.1161197 44.0613807,51.9635543 39.3432106,51.4263715 C36.1977639,51.0682496 33.9705501,50.5088574 32.6615691,49.7481949 Z" id="Path-34" fill="#BEBEBE" transform="translate(49.498994, 48.592851) scale(-1, 1) translate(-49.498994, -48.592851) "></path>
                        </g>
                        <g id="Group-9" transform="translate(86.671522, 50.881695)">
                            <path d="M53.9508227,9.72495113 C41.0078826,7.90358395 30.4236958,14.2960266 17.826392,17.5533764 C5.23007392,20.8100057 2.16367953,18.4805785 2.16367953,18.4805785 C2.16367953,18.4805785 11.8090494,31.0276133 29.8082637,32.5745634 C47.8073656,34.1206808 73.9813673,12.544574 53.9508227,9.72495113 Z" id="Path-Copy-20" fill="#DDDDDD" fill-rule="nonzero" transform="translate(31.663102, 21.029104) scale(-1, 1) rotate(-20.000000) translate(-31.663102, -21.029104) "></path>
                            <path d="M40.6681367,28.72367 C43.9606714,29.9159462 46.8823063,30.6515631 49.4330415,30.9305205 C53.2591442,31.3489566 54.6921264,30.4152641 57.5259264,31.4810078 C59.4151264,32.1915037 60.3235275,33.0270156 60.2511296,33.9875437 C58.915053,34.0478067 57.1706008,33.9261474 55.0177732,33.6225659 C51.7885318,33.1671937 51.698071,33.0895508 49.1269466,32.4188645 C46.5558223,31.7481781 46.8395915,31.8363699 44.6279186,30.9123379 C43.15347,30.2963166 41.8335427,29.5667606 40.6681367,28.72367 Z" id="Path-35" fill="#BEBEBE" transform="translate(50.461637, 31.363093) scale(-1, 1) translate(-50.461637, -31.363093) "></path>
                        </g>
                        <g id="Group-10" transform="translate(78.677284, 37.216397)">
                            <path d="M56.2048988,2.19240357 C42.8553796,1.44533592 30.9900267,9.35324123 17.3915684,14.0626897 C3.79423026,18.7712663 0.859948546,16.5429851 0.859948546,16.5429851 C0.859948546,16.5429851 9.46148829,29.1936844 28.1447869,29.1670166 C46.8280679,29.1393748 76.8645624,3.34950647 56.2048988,2.19240357 Z" id="Path-Copy-21" fill="#DDDDDD" fill-rule="nonzero" transform="translate(32.018745, 15.655030) scale(-1, 1) rotate(-4.000000) translate(-32.018745, -15.655030) "></path>
                            <path d="M44.4647859,18.7143498 C46.9054395,19.6555172 49.2299916,20.556555 51.4384423,21.4174634 C54.7511182,22.7088259 55.9055645,22.709543 57.6808971,24.3944222 C58.8644522,25.5176749 60.6507199,27.0222727 63.0397003,28.9082155 C59.713497,28.3154516 57.2571779,27.6498466 55.670743,26.9114007 C53.2910906,25.8037317 53.0542027,25.6343818 51.0929016,24.3944222 C49.1316005,23.1544626 48.2726269,22.3943533 46.7515771,21.0714303 C45.7375439,20.1894816 44.9752802,19.4037881 44.4647859,18.7143498 Z" id="Path-36" fill="#BEBEBE" transform="translate(53.752243, 23.811283) scale(-1, 1) translate(-53.752243, -23.811283) "></path>
                        </g>
                    </g>
                    <path d="M101.579499,144 C98.4118723,136.984899 95.1862583,130.318199 91.9026571,123.999902 C88.6190559,117.681604 82.7984286,106.613492 74.4407753,90.7955648 L62.0703532,67.4781438 L75.9286058,140.257256 L95.3305712,144 L101.579499,144 Z" id="Path-25" fill="#BEBEBE"></path>
                    <path d="M123.394884,136.507186 C118.136235,130.1817 110.78307,120.48865 101.33539,107.428034 C91.8877104,94.3674192 86.8504807,87.1902976 86.2237008,85.8966695 L84.6798539,82.343485 C83.9083102,80.5677666 83.3116557,78.7210836 82.8983506,76.8296201 L82.8751575,76.7234779 C82.4791023,74.9109577 82.3879933,73.0450902 82.6055771,71.2026064 C82.8234539,69.3576408 83.3165071,67.555727 84.0683199,65.856861 L87.7898982,57.4472377 L87.7898982,57.4472377 L79.1608903,71.2421053 L108.835022,142.655147 C110.315183,142.426169 112.723219,141.602848 116.05913,140.185184 C119.395041,138.76752 121.840292,137.541521 123.394884,136.507186 Z" id="Path-25-Copy" fill="#BEBEBE"></path>
                    <path d="M87.7184874,57.5832771 C87.7504793,59.1390177 88.5212725,61.0488417 90.0308669,63.3127489 C92.2952585,66.7086098 100.48635,77.256157 103.418625,80.0704409 C105.373475,81.9466301 108.332607,83.5522529 112.296022,84.8873091 C111.331735,84.7287558 110.724437,84.6494791 110.474128,84.6494791 C109.872803,84.6494791 109.208377,84.7868122 108.398451,84.913932 C106.624175,85.1924084 106.251383,85.0553919 104.219662,84.3815587 C102.187941,83.7077255 98.1230334,79.008838 93.9603018,74.2329113 C89.7975703,69.4569845 89.2575498,68.4026313 88.6534594,66.0744376 C88.2507324,64.5223085 87.939075,61.6919217 87.7184874,57.5832771 Z" id="Path-26" fill="#BEBEBE"></path>
                    <polygon id="Path-28" fill="#BEBEBE" transform="translate(115.529351, 75.402462) scale(-1, -1) translate(-115.529351, -75.402462) " points="105.005958 67.1065628 126.052745 83.6983613 122.285181 82.5166812"></polygon>
                    <path d="M118.780959,22.2315789 L114.106413,6.2814624 C113.860582,6.37635458 113.61333,6.49126104 113.364656,6.62618177 C113.115981,6.7611025 112.922571,6.79718633 112.784425,6.73443326 C112.726703,7.74985524 112.726703,8.98421136 112.784425,10.4375016 C112.842147,11.8907919 112.948398,13.3315486 113.103177,14.7597716 C113.769898,16.2296933 114.71201,17.78199 115.929514,19.4166617 C117.147019,21.0513333 118.0975,21.9896391 118.780959,22.2315789 Z" id="Path-29" fill="#BEBEBE"></path>
                    <polygon id="Path-30" fill="#BEBEBE" points="112.237814 30.8210526 125.324104 52.0421053 114.299311 32.0478512"></polygon>
                    <path d="M145.456856,87.4105263 C146.822643,89.6868791 147.661508,91.2523807 147.97345,92.107031 C148.285392,92.9616814 148.285392,93.7540746 147.97345,94.4842105" id="Path-31" fill="#BEBEBE"></path>
                </g>
                <path d="M117.580089,24.4814068 C112.150187,25.9836176 110.183224,24.8683338 106.140182,24.2892991 C101.43392,23.6152796 96.567611,25.493128 96.567611,25.493128 C96.567611,25.493128 100.404058,25.4751614 103.253174,26.2160837 C111.059309,28.2460957 116.083807,31.909956 124.245776,31.7976452 C136.169668,31.6331336 126.319929,22.0632491 117.580089,24.4814068 Z" id="Path-Copy-11" fill="#DDDDDD" fill-rule="nonzero" transform="translate(113.163534, 27.945076) scale(-1, 1) rotate(-12.000000) translate(-113.163534, -27.945076) "></path>
                <path d="M113.553539,20.9586405 C108.123636,22.4608513 106.156674,21.3455675 102.113631,20.7665327 C97.4073693,20.0925133 92.5410605,21.9703617 92.5410605,21.9703617 C92.5410605,21.9703617 96.3775079,21.952395 99.2266237,22.6933173 C107.032758,24.7233294 112.057256,28.3871897 120.219225,28.2748789 C132.143117,28.1103672 122.293379,18.5404827 113.553539,20.9586405 Z" id="Path-Copy-12" fill="#DDDDDD" fill-rule="nonzero" transform="translate(109.136984, 24.422310) scale(-1, -1) rotate(-12.000000) translate(-109.136984, -24.422310) "></path>
                <path d="M122.237747,27.0011656 C117.526361,26.3162407 111.775658,32.800396 111.775658,32.800396 C111.775658,32.800396 115.092332,31.6985888 117.945354,32.445868 C120.870036,33.2119168 124.726434,31.071572 127.182416,32.0104378 C131.290568,33.5808913 126.28519,27.5895689 122.237747,27.0011656 Z" id="Path-Copy-16" fill="#DDDDDD" fill-rule="nonzero" transform="translate(120.245757, 29.875442) scale(-1, -1) rotate(29.000000) translate(-120.245757, -29.875442) "></path>
            </g>
        </g>
    </g>
</svg>
