<svg id="Layer_1" data-name="Layer 1" xmlns="http://www.w3.org/2000/svg" viewBox="0 0 130 130"><defs><style>.cls-1{fill:#219231;}.cls-2{fill:#2e9e32;}</style></defs><polygon class="cls-1" points="59.66 53.75 76.19 45.98 83.96 62.51 67.43 70.28 72.49 56.25 59.66 53.75"/><path class="cls-2" d="M105.65,37.92A47.31,47.31,0,0,0,66.83,17.56h0A47.26,47.26,0,0,0,19.6,64.77h0A47.28,47.28,0,0,0,66.78,112h0a47.25,47.25,0,0,0,26.85-8.39c.79-.54,1.56-1.13,2.32-1.72l.08,0,0-.13A47,47,0,0,0,111,81.38h0l.22-.61h0l.22-.61h0A47.44,47.44,0,0,0,114,64.8h0A47.38,47.38,0,0,0,105.65,37.92Zm-1.72,26.86a37.06,37.06,0,0,1-2.21,12.57h0a37.49,37.49,0,0,1-4.17,8.21L48.78,68,43.4,82.92,84.08,97.58a37.05,37.05,0,0,1-17.26,4.3h0a37.13,37.13,0,0,1-37.11-37.1h0A37,37,0,0,1,31.92,52.2,37.69,37.69,0,0,1,35.44,45L84,62.51l5.39-14.94L48.15,32.72a37.22,37.22,0,0,1,18.66-5h0a37.13,37.13,0,0,1,37.11,37.1Z"/><polygon class="cls-1" points="65.24 60.1 48.71 67.87 43.67 82.51 60.2 74.74 65.24 60.1"/></svg>