<svg width="256" height="256" viewBox="0 0 256 256" fill="none" xmlns="http://www.w3.org/2000/svg">
<path fill-rule="evenodd" clip-rule="evenodd" d="M128 256C198.692 256 256 198.692 256 128C256 57.3075 198.692 0 128 0C57.3075 0 0 57.3075 0 128C0 198.692 57.3075 256 128 256ZM95.0773 134.52C93.1002 131.047 89.8442 131.038 87.8466 134.496L75.1805 156.435C73.1829 159.896 74.8167 162.73 78.8149 162.73H103.886C107.881 162.73 109.533 159.887 107.553 156.414L95.0773 134.52ZM73.7812 97.1343L80.3871 108.73C82.0356 111.625 82.021 116.354 80.3666 119.234L58.2844 157.482C56.6095 160.38 52.5204 162.727 49.1911 162.727H30.8196C26.8215 162.727 25.17 159.884 27.15 156.411L63.7551 92.1711C65.7322 88.6981 68.9706 88.6981 70.9476 92.1711L73.7812 97.1343ZM216.353 134.52C214.376 131.047 211.123 131.038 209.122 134.496L196.456 156.435C194.459 159.896 196.092 162.73 200.091 162.73H225.162C229.157 162.73 230.808 159.887 228.831 156.414L216.353 134.52ZM195.057 97.1343L201.663 108.73C203.311 111.625 203.297 116.354 201.642 119.234L179.56 157.482C177.885 160.38 173.799 162.727 170.467 162.727H152.095C148.097 162.727 146.446 159.884 148.426 156.411L185.028 92.1711C187.005 88.6981 190.243 88.6981 192.22 92.1711L195.057 97.1343ZM168.196 93.4236C170.176 89.9506 168.525 87.1111 164.53 87.1111H139.459C135.46 87.1111 133.827 89.9418 135.824 93.4031L148.49 115.344C150.491 118.806 153.744 118.797 155.721 115.324L168.196 93.4236ZM134.434 152.703L141.031 141.108C142.679 138.224 142.665 133.487 141.001 130.598L118.928 92.353C117.253 89.4578 113.164 87.1111 109.835 87.1111H91.4634C87.4652 87.1111 85.8138 89.9506 87.7938 93.4236L124.411 157.67C126.388 161.143 129.626 161.143 131.603 157.67L134.434 152.703Z" fill="white"/>
</svg>
