<svg width="257" height="256" viewBox="0 0 257 256" fill="none" xmlns="http://www.w3.org/2000/svg">
<path fill-rule="evenodd" clip-rule="evenodd" d="M256 128C256 198.692 198.692 256 128 256C57.3075 256 0 198.692 0 128C0 57.3075 57.3075 0 128 0C198.692 0 256 57.3075 256 128ZM135.793 37.7969C131.639 35.4632 125.317 35.4632 121.162 37.7969L78.7666 61.6115C76.2116 63.0465 74.8997 65.0875 74.7114 67.2736H74.6925L74.6924 67.5825C74.6861 67.7475 74.6862 67.9131 74.6925 68.0795L74.6924 186.374C74.6853 186.537 74.686 186.735 74.6925 186.977C74.7569 189.326 76.0572 191.685 78.7666 193.207L121.162 217.021C125.317 219.355 131.639 219.355 135.793 217.021L178.189 193.207C180.91 191.679 182.296 189.335 182.351 186.977V67.2736H182.312C182.065 65.1114 180.691 63.017 178.189 61.6115L135.793 37.7969ZM135.78 156.27L175.608 133.825V186.415L135.488 209.091C135.346 209.164 135.205 209.238 135.064 209.312C132.873 210.459 130.704 211.594 128.475 211.585L128.338 211.584C125.961 211.526 123.519 210.222 121.17 208.883L81.4314 186.607V133.875L121.17 156.27C125.318 158.609 131.631 158.609 135.78 156.27ZM69.5264 194.112C68.5414 191.987 68.0453 188.972 68.0453 184.383H61.44L61.4408 184.701C61.4876 195.181 63.8651 200.218 70.2399 204.837C70.8362 205.27 71.4756 205.709 72.2469 206.221L72.6954 206.518L75.3632 208.25L78.782 202.173L76.3983 200.627L75.6221 200.116C74.9638 199.679 74.4232 199.305 73.9323 198.949L73.8047 198.857C71.5679 197.219 70.3429 195.873 69.5264 194.112ZM124.407 102.395C124.671 102.246 124.96 102.115 125.268 102.002V150.764C124.96 150.65 124.671 150.519 124.407 150.371L82.076 126.479L81.9796 126.423L81.9131 126.382L81.9489 126.36C81.9892 126.336 82.0316 126.31 82.076 126.286L124.407 102.395ZM132.012 150.764V102.002C132.321 102.115 132.609 102.246 132.873 102.395L175.204 126.286L175.3 126.342L175.366 126.382L175.331 126.405C175.291 126.429 175.249 126.454 175.204 126.479L132.873 150.371C132.609 150.519 132.321 150.65 132.012 150.764ZM137.551 97.1264L175.608 75.8252V118.427L137.551 97.1264ZM81.4314 118.427V75.8252L119.487 97.1264L81.4314 118.427ZM124.444 44.1632C126.647 42.9221 130.633 42.9221 132.836 44.1632L175.204 68.0296L175.3 68.0855L175.366 68.1261L175.331 68.1483C175.291 68.1728 175.249 68.1975 175.204 68.2226L132.836 92.0888C130.633 93.3299 126.647 93.3299 124.444 92.0888L82.0762 68.2226L81.9796 68.1667L81.9131 68.1261L81.9491 68.1041C81.9894 68.0794 82.0317 68.0547 82.0762 68.0296L124.444 44.1632ZM184.585 48.3008L181.916 46.5687L178.499 52.6445L180.882 54.1907L181.658 54.7018C182.317 55.1398 182.857 55.5126 183.347 55.8683L183.475 55.9613C185.713 57.599 186.938 58.9449 187.753 60.7059C188.739 62.8308 189.235 65.8468 189.235 70.4358H195.84L195.839 70.1166C195.793 59.6379 193.414 54.6007 187.04 49.9805C186.444 49.5483 185.805 49.1086 185.033 48.5967L184.585 48.3008Z" fill="white"/>
</svg>
