<svg width="16" height="19" viewBox="0 0 16 19" fill="none" xmlns="http://www.w3.org/2000/svg">
<path fill-rule="evenodd" clip-rule="evenodd" d="M8.51042 0.653125C10.0542 2.19688 12.0927 3.12708 14.2698 3.30521C14.7052 3.34479 15.0417 3.70104 15.0417 4.13646V6.53125C15.0417 11.5583 12.3104 16.2292 7.93646 18.7031C7.79792 18.7625 7.65938 18.8021 7.52083 18.8021C7.38229 18.8021 7.22396 18.7823 7.10521 18.7031C2.73125 16.2292 0 11.5583 0 6.53125V4.13646C0 3.70104 0.336458 3.34479 0.771875 3.30521C2.94896 3.12708 4.9875 2.19688 6.53125 0.653125L6.92708 0.2375C7.08542 0.0791667 7.30313 0 7.52083 0C7.73854 0 7.95625 0.0791667 8.11458 0.2375L8.51042 0.653125ZM7.44167 11.8156L11.1427 7.79792C11.4396 7.46146 11.4198 6.92708 11.0833 6.61042C10.7469 6.31354 10.2323 6.33333 9.91562 6.66979L6.80833 10.0542L5.32396 8.56979C5.00729 8.25313 4.47292 8.25313 4.15625 8.56979C3.83958 8.88646 3.83958 9.42083 4.15625 9.7375L6.23438 11.8552C6.39271 12.0135 6.61042 12.0927 6.82812 12.0927H6.84792C7.06562 12.0729 7.28333 11.974 7.44167 11.8156Z" fill="white"/>
</svg>
