<svg width="257" height="256" viewBox="0 0 257 256" fill="none" xmlns="http://www.w3.org/2000/svg">
<path fill-rule="evenodd" clip-rule="evenodd" d="M256 128C256 198.694 198.694 256 128 256C57.3056 256 0 198.694 0 128C0 57.3056 57.3056 0 128 0C198.694 0 256 57.3056 256 128ZM109.669 36.4037L128.458 25.6L147.247 36.4037L198.447 65.9963L217.237 76.8V179.2L198.447 190.003L147.717 219.597L128.928 230.4L110.139 219.597L58.469 190.003L39.6801 179.2V76.8L58.469 65.9963L109.669 36.4037ZM128.458 68.8147L77.258 98.4077V157.592L128.458 187.186L179.658 157.592V98.4077L128.458 68.8147Z" fill="white"/>
</svg>
