<svg width="257" height="256" viewBox="0 0 257 256" fill="none" xmlns="http://www.w3.org/2000/svg">
<path fill-rule="evenodd" clip-rule="evenodd" d="M92.8038 77.5539C91.3444 75.6084 72.1327 52.0059 50.7824 25.9044C19.9299 49.275 0 86.3093 0 128C0 198.694 57.3056 256 128 256C198.694 256 256 198.694 256 128C256 57.3056 198.694 0 128 0C100.26 0 74.5821 8.82328 53.6186 23.8166C74.9673 47.2811 97.029 71.6185 99.9974 75.0295L101.638 76.7965L101.513 79.6996C101.386 83.6124 100.124 86.263 97.2211 88.9137C93.9392 92.0691 89.7741 93.7101 83.337 94.5933C79.4241 95.0989 78.0357 95.7299 76.3949 97.4963C74.8802 99.1373 74.2491 101.283 73.8705 106.584C73.2394 114.915 72.2296 118.323 68.3168 126.527C64.5302 134.479 63.7729 137.382 64.404 141.673C65.1613 146.723 68.0644 150.509 74.8802 155.178C80.0552 158.712 82.4534 160.984 83.7156 163.762C84.4728 165.528 84.5992 166.159 84.5992 169.062C84.5992 173.606 83.8418 175.374 80.8125 178.656C75.8899 183.956 66.9284 188.248 56.0736 190.772C51.5296 191.782 51.2772 191.782 51.2772 190.772C51.2772 189.51 49.5101 186.103 46.6071 181.559C43.1991 176.384 41.8108 173.733 40.5486 169.693C39.1602 165.151 38.6552 162.121 38.9078 157.325C39.1602 152.781 39.665 150.761 41.432 147.227C42.8205 144.324 43.704 143.062 49.3839 135.994C59.1028 124.003 62.5107 116.934 63.7729 106.963C64.9089 98.0019 66.4235 93.7101 69.8314 89.9235C71.851 87.6515 72.3558 86.7679 72.3558 85.127C72.3558 84.3698 69.2004 78.185 59.4815 60.8929L59.4799 60.8902C45.7889 36.426 44.2718 33.715 44.4585 33.5921C44.4818 33.5767 44.5316 33.6016 44.5875 33.6296C44.7138 33.7558 51.9083 44.7369 60.365 57.9899C71.4722 75.2819 76.3949 82.4764 77.5309 83.6124C79.1717 85.2532 81.5698 86.263 83.5894 86.263C85.3564 86.263 89.0168 85.2533 90.7839 84.2436C93.9392 82.4764 94.697 80.0783 92.8038 77.5539ZM54.5588 162.752C55.9473 160.353 55.19 157.325 52.918 155.809C50.7723 154.422 47.4907 155.053 47.4907 156.946C47.4907 157.45 47.7431 157.956 48.5003 158.208C49.6363 158.839 49.7625 159.47 48.879 160.859C47.9955 162.248 47.9955 163.51 49.1315 164.393C50.8985 165.782 53.2968 165.024 54.5588 162.752ZM93.3081 32.8719C92.0461 32.9983 92.1728 33.1245 94.8224 33.5031C104.541 35.0177 111.988 38.8044 119.435 45.9988C122.844 49.2805 126.251 53.1933 131.679 60.3878C143.922 76.6701 149.224 81.0877 159.574 84.4958C165.632 86.5152 171.817 87.3988 182.671 88.0298C194.662 88.6609 199.206 89.5445 203.498 92.4475C205.896 94.089 207.663 95.9821 209.556 98.8851L210.692 100.526L210.44 98.6317C209.682 91.564 204.634 81.5927 198.196 74.3982L197.061 73.136L196.43 75.7865C194.915 82.4762 191.759 87.2725 188.73 87.2725C187.342 87.2725 185.827 86.389 185.322 85.1268C184.691 83.486 184.691 82.9811 185.701 81.0877C187.594 77.6799 187.973 73.2622 187.09 67.3299C186.836 65.689 186.458 64.0481 186.205 63.7957C185.574 63.0385 180.399 60.0091 177.117 58.4945C165.128 52.9408 150.738 51.1738 136.728 53.4458L133.446 53.9506L131.174 51.3C122.465 41.5812 114.26 36.0275 105.172 33.8817C101.259 32.9983 95.7069 32.4933 93.3081 32.8719ZM188.856 49.5334C189.11 44.737 189.741 41.5816 191.128 38.6785C191.634 37.5425 192.138 36.5327 192.265 36.5327C192.39 36.5327 192.138 37.4163 191.759 38.4261C190.751 41.2029 190.624 45.1156 191.255 49.5334C192.138 55.2133 192.517 55.9706 198.575 62.1553C201.353 65.0584 204.633 68.7187 205.897 70.2333L208.042 73.0102L205.897 70.9907C203.246 68.4663 197.188 63.6699 195.799 63.0388C194.916 62.534 194.789 62.534 194.158 63.1651C193.654 63.6699 193.527 64.4273 193.527 68.0877C193.4 73.7675 192.644 77.3016 190.751 80.9621C189.741 82.8553 189.614 82.4767 190.497 80.3309C191.128 78.69 191.255 77.9327 191.255 72.5053C191.255 61.5242 189.993 58.8736 182.294 54.4559C180.401 53.3199 177.119 51.6791 175.225 50.7955C173.206 49.9121 171.691 49.1547 171.817 49.1547C172.069 48.9023 179.516 51.0481 182.419 52.3103C186.838 54.0773 187.594 54.2035 188.1 54.0773C188.479 53.6986 188.731 52.6889 188.856 49.5334ZM92.0448 41.2027C91.2883 49.6594 94.6957 61.0191 99.9974 68.3398C104.163 74.0197 110.6 78.4374 115.396 78.9422C118.551 79.1946 119.436 78.185 118.047 76.1654C116.027 73.3885 113.629 68.9709 112.998 67.0776C112.619 65.9416 111.735 62.4076 111.104 59.3783C108.959 49.0282 106.687 44.863 101.638 41.8337C99.7453 40.6977 95.8323 39.1831 93.5603 38.8045L92.2982 38.5521L92.0448 41.2027ZM182.418 123.246C157.426 113.148 148.591 104.439 148.591 89.6712C148.591 87.5254 148.717 85.7583 148.717 85.7583C148.801 85.7583 149.221 86.0941 149.828 86.5793C150.132 86.8228 150.484 87.104 150.863 87.3992C155.912 91.4382 161.591 93.2053 177.368 95.4778C186.583 96.8653 191.885 97.8752 196.681 99.5162C211.953 104.564 221.419 114.915 223.691 128.925C224.323 132.964 223.944 140.664 222.934 144.703C222.051 147.858 219.526 153.664 218.895 153.791C218.769 153.791 218.516 153.16 218.516 152.15C218.264 146.848 215.613 141.8 211.196 137.887C205.894 133.343 199.078 129.935 182.418 123.246ZM163.484 122.109C163.863 123.119 164.494 125.517 164.748 127.41C166.766 139.276 160.581 148.995 148.086 152.906C146.824 153.412 141.775 154.422 136.853 155.178C126.881 156.946 122.337 158.081 117.92 160.228C114.764 161.742 110.852 164.014 111.104 164.266C111.23 164.393 111.987 164.141 112.745 163.887C118.424 161.869 124.736 160.859 134.202 160.353C137.328 160.145 140.799 159.85 142.767 159.683C143.182 159.648 143.53 159.619 143.794 159.597C152.251 158.46 158.184 155.936 162.728 151.267C165.252 148.616 166.766 146.217 168.028 142.81C168.786 140.663 168.913 139.78 168.913 135.994V135.993C168.913 132.081 168.913 131.323 168.028 128.925C166.893 125.77 165.631 123.498 163.99 121.604L162.853 120.216L163.484 122.109ZM176.234 147.731C172.952 140.538 172.196 133.722 173.962 127.284C174.214 126.653 174.466 126.022 174.72 126.022C174.972 126.022 175.73 126.401 176.486 126.906C178.002 127.916 181.157 129.682 189.235 134.1C199.458 139.653 205.265 143.945 209.304 148.868C212.838 153.16 214.984 158.081 215.993 164.141C216.625 167.548 216.246 175.753 215.362 179.16C212.585 189.889 206.274 198.472 197.06 203.395C195.672 204.152 194.536 204.657 194.41 204.657C194.283 204.657 194.788 203.395 195.545 201.88C198.575 195.443 198.954 189.258 196.682 182.316C195.293 178.025 192.39 172.85 186.584 164.141C179.641 154.043 178.002 151.392 176.234 147.731ZM113.629 171.209C103.027 172.975 91.5405 178.529 82.2004 186.355L79.5498 188.879L81.948 189.258C94.5702 191.151 97.9776 192.919 106.813 202.006C111.862 207.181 113.629 208.317 117.795 209.453C123.979 211.094 130.038 208.191 132.183 202.637C133.066 200.113 132.941 196.074 131.931 194.054C129.407 189.132 121.96 187.617 118.426 191.151C115.523 194.054 116.406 198.598 120.067 199.356C120.408 199.413 120.595 199.444 120.605 199.415C120.617 199.379 120.368 199.254 119.815 198.978L119.815 198.978L119.814 198.977C118.173 198.22 117.416 197.21 117.416 195.569C117.289 191.657 121.707 189.637 125.746 191.404C128.776 192.792 129.911 194.56 129.911 197.588C129.911 202.259 125.873 205.919 121.202 205.288C118.678 204.909 115.648 203.395 114.008 201.501C109.969 196.957 111.483 189.51 117.289 186.734C121.708 184.588 127.514 185.219 132.058 188.122C137.233 191.53 139.505 194.56 143.922 204.783C145.436 208.191 147.204 211.852 148.087 213.114C152.252 219.424 157.427 222.58 163.485 222.58C166.894 222.58 169.418 222.075 172.573 220.434C174.845 219.299 178.253 217.027 178.001 216.774C178.001 216.674 177.371 216.889 176.548 217.171C176.435 217.209 176.319 217.249 176.2 217.289C176.087 217.328 175.972 217.367 175.855 217.405C169.166 219.93 162.35 219.803 158.437 216.9C155.913 215.007 153.893 211.473 152.883 206.929C152.869 206.843 152.848 206.721 152.821 206.568L152.768 206.26L152.768 206.257L152.768 206.257C152.531 204.889 152.034 202.016 151.621 199.229C150.232 190.52 148.845 186.607 145.815 182.063C142.66 177.394 136.602 173.606 129.911 171.84C125.746 170.703 118.173 170.451 113.629 171.209ZM98.8608 103.808C99.744 100.526 102.647 97.2442 105.677 96.361C107.697 95.7299 111.61 96.1075 113.503 97.1174C117.163 99.0106 119.813 103.177 119.182 106.205C118.551 109.866 112.619 112.895 105.677 112.895C102.143 112.895 100.881 112.39 99.4918 110.623C98.6086 109.487 98.3565 105.827 98.8608 103.808ZM112.493 98.3795C114.386 99.5162 114.765 101.157 113.755 102.671C112.997 103.681 110.725 104.691 109.085 104.691C106.56 104.691 103.91 102.924 103.91 101.283C103.91 98.0019 109.085 96.2342 112.493 98.3795Z" fill="white"/>
</svg>
