<svg width="256" height="256" viewBox="0 0 256 256" fill="none" xmlns="http://www.w3.org/2000/svg">
<path fill-rule="evenodd" clip-rule="evenodd" d="M256 128C256 198.692 198.692 256 128 256C57.3076 256 0 198.692 0 128C0 57.3075 57.3076 0 128 0C198.692 0 256 57.3075 256 128ZM141.642 139.791V139.812V139.833C172.819 138.433 196.094 133 196.094 126.497C196.094 119.995 172.84 114.562 141.642 113.162V134.4C140.737 134.482 135.88 134.894 126.167 134.894C118.08 134.894 112.215 134.544 110.177 134.4V113.142C78.9389 114.521 55.6026 119.974 55.6026 126.477C55.6026 133 78.9183 138.433 110.177 139.812V139.791C112.194 139.894 117.895 140.121 126.023 140.121C136.189 140.121 140.758 139.853 141.642 139.791ZM141.642 91.9457V110.96L141.663 110.981C176.976 112.607 203.523 119.624 203.523 128C203.523 136.396 176.976 143.393 141.663 145.018V205.973H110.198V145.018C74.8436 143.372 48.2354 136.375 48.2354 127.979C48.2354 119.583 74.823 112.586 110.198 110.96V91.9457H66.6738V62.9502H185.167V91.9457H141.642Z" fill="white"/>
</svg>
