<?xml version="1.0" encoding="UTF-8"?>
<svg width="21px" height="18px" viewBox="0 0 21 18" version="1.1" xmlns="http://www.w3.org/2000/svg" xmlns:xlink="http://www.w3.org/1999/xlink">
    <!-- Generator: Sketch 53.2 (72643) - https://sketchapp.com -->
    <title>icon-wallet</title>
    <desc>Created with Sketch.</desc>
    <g id="Page-1" stroke="none" stroke-width="1" fill="none" fill-rule="evenodd">
        <g id="home---Hyperdrive" transform="translate(-1319.000000, -18.000000)" fill="#FFFFFF">
            <g id="icon-wallet" transform="translate(1319.000000, 18.000000)">
                <path d="M11.0000002,7.17428577 L11.0000002,10.8000004 C11.0000002,11.4942859 11.5499997,12.0857141 12.2500002,12.0857141 L20,12.0857141 L20,16.2771431 C20,17.2285709 19.2499995,18 18.3500004,18 L1.65000007,18 C0.75000003,18 0,17.2285709 0,16.2771431 L0,1.72285715 C0,0.771428593 0.75000003,0 1.65000007,0 L18.3500004,0 C19.2750001,0 20,0.771428593 20,1.72285715 L20,5.9142859 L12.2500002,5.9142859 C11.5499997,5.9142859 11.0000002,6.48000026 11.0000002,7.17428577 Z" id="Path"></path>
                <path d="M20.7500015,6.94285552 L12.2500016,6.94285552 C12.1250016,6.94285552 12.0000016,7.04571267 12.0000016,7.1742841 L12.0000016,10.7999986 C12.0000016,10.92857 12.1000016,11.0571415 12.2500016,11.0571415 L20.7500015,11.0571415 C20.8750015,11.0571415 21.0000016,10.9542844 21.0000016,10.7999986 L21.0000016,7.1742841 C21.0000016,7.04571267 20.9000013,6.94285552 20.7500015,6.94285552 Z M13.5000016,9.51428429 C13.2250016,9.51428429 13.0000016,9.28285566 13.0000016,8.99999849 C13.0000016,8.71714129 13.2250016,8.48571269 13.5000016,8.48571269 L13.5000016,8.48571269 C13.7750015,8.48571269 14.0000016,8.71714129 14.0000016,8.99999849 C14.0000016,9.28285566 13.7750015,9.51428429 13.5000016,9.51428429 Z" id="Shape" opacity="0.600000024"></path>
            </g>
        </g>
    </g>
</svg>